/* XPM */
static char * coin_3[] = {
"64 64 5 1",
"a c #1B5E20",
"b c #FFD600",
"c c #FFC107",
"d c #FF6F00",
"e c #FFFFFF",
"aaaaaaaaaaaaaaaaaaaaaaaaaaaaaaaaaaaaaaaaaaaaaaaaaaaaaaaaaaaaaaaa",
"aaaaaaaaaaaaaaaaaaaaaaaaaaaaaaaaaaaaaaaaaaaaaaaaaaaaaaaaaaaaaaaa",
"aaaaaaaaaaaaaaaaaaaaaaaaaaaaaaaaaaaaaaaaaaaaaaaaaaaaaaaaaaaaaaaa",
"aaaaaaaaaaaaaaaaaaaaaaaaaaaaaaaaaaaaaaaaaaaaaaaaaaaaaaaaaaaaaaaa",
"aaaaaaaaaaaaaaaaaaaaaaaaaaaaaaaaaaaaaaaaaaaaaaaaaaaaaaaaaaaaaaaa",
"aaaaaaaaaaaaaaaaaaaaaaaaaaaaaaaaaaaaaaaaaaaaaaaaaaaaaaaaaaaaaaaa",
"aaaaaaaaaaaaaaaaaaaaaaaaaaaaaaaaaaaaaaaaaaaaaaaaaaaaaaaaaaaaaaaa",
"aaaaaaaaaaaaaaaaaaaaaaaaaaaaaaaaaaaaaaaaaaaaaaaaaaaaaaaaaaaaaaaa",
"aaaaaaaaaaaaaaaaaaaaaaaaaaaaaaaadaaaaaaaaaaaaaaaaaaaaaaaaaaaaaaa",
"aaaaaaaaaaaaaaaaaaaaaaaaaadddddddddddddaaaaaaaaaaaaaaaaaaaaaaaaa",
"aaaaaaaaaaaaaaaaaaaaaaadddddddddddddddddddaaaaaaaaaaaaaaaaaaaaaa",
"aaaaaaaaaaaaaaaaaaaaadddddddddddbdddddddddddaaaaaaaaaaaaaaaaaaaa",
"aaaaaaaaaaaaaaaaaaaaddddddbbbbbbbbbbbbbddddddaaaaaaaaaaaaaaaaaaa",
"aaaaaaaaaaaaaaaaaaadddddbbbbbbbbbbbbbbbbbdddddaaaaaaaaaaaaaaaaaa",
"aaaaaaaaaaaaaaaaadddddbbbbbbbbbbbbbbbbbbbbbdddddaaaaaaaaaaaaaaaa",
"aaaaaaaaaaaaaaaadddddbbbbbbbbbbbcbbbbbbbbbbbdddddaaaaaaaaaaaaaaa",
"aaaaaaaaaaaaaaaaddddbbbbbbbcccccccccccbbbbbbbddddaaaaaaaaaaaaaaa",
"aaaaaaaaaaaaaaaddddbbbbbbcccccccccccccccbbbbbbddddaaaaaaaaaaaaaa",
"aaaaaaaaaaaaaaddddbbbbbcccecccccccccccccccbbbbbddddaaaaaaaaaaaaa",
"aaaaaaaaaaaaaddddbbbbbceeeeeeecccccccccccccbbbbbddddaaaaaaaaaaaa",
"aaaaaaaaaaaaadddbbbbbceeeeeeeeecccccccccccccbbbbbdddaaaaaaaaaaaa",
"aaaaaaaaaaaaddddbbbbceeeeeeeeeeecccccccccccccbbbbddddaaaaaaaaaaa",
"aaaaaaaaaaaadddbbbbbceeeeeeeeeeecccccccccccccbbbbbdddaaaaaaaaaaa",
"aaaaaaaaaaaadddbbbbcceeeeeeeeeeeccccccccccccccbbbbdddaaaaaaaaaaa",
"aaaaaaaaaaadddbbbbbceeeeeeeeeeeeecccccccccccccbbbbbdddaaaaaaaaaa",
"aaaaaaaaaaadddbbbbccceeeeeeeeeeecccccccccccccccbbbbdddaaaaaaaaaa",
"aaaaaaaaaaadddbbbbccceeeeeeeeeeecccccccccccccccbbbbdddaaaaaaaaaa",
"aaaaaaaaaaadddbbbbccceeeeeeeeeeecccccccccccccccbbbbdddaaaaaaaaaa",
"aaaaaaaaaaadddbbbbcccceeeeeeeeeccccccccccccccccbbbbdddaaaaaaaaaa",
"aaaaaaaaaaadddbbbbccccceeeeeeecccccccccccccccccbbbbdddaaaaaaaaaa",
"aaaaaaaaaadddbbbbcccccccccecccccccccccccccccccccbbbbdddaaaaaaaaa",
"aaaaaaaaaaadddbbbbcccccccccccccccccccccccccccccbbbbdddaaaaaaaaaa",
"aaaaaaaaaaadddbbbbcccccccccccccccccccccccccccccbbbbdddaaaaaaaaaa",
"aaaaaaaaaaadddbbbbcccccccccccccccccccccccccccccbbbbdddaaaaaaaaaa",
"aaaaaaaaaaadddbbbbcccccccccccccccccccccccccccccbbbbdddaaaaaaaaaa",
"aaaaaaaaaaadddbbbbcccccccccccccccccccccccccccccbbbbdddaaaaaaaaaa",
"aaaaaaaaaaadddbbbbbcccccccccccccccccccccccccccbbbbbdddaaaaaaaaaa",
"aaaaaaaaaaaadddbbbbcccccccccccccccccccccccccccbbbbdddaaaaaaaaaaa",
"aaaaaaaaaaaadddbbbbbcccccccccccccccccccccccccbbbbbdddaaaaaaaaaaa",
"aaaaaaaaaaaaddddbbbbcccccccccccccccccccccccccbbbbddddaaaaaaaaaaa",
"aaaaaaaaaaaaadddbbbbbcccccccccccccccccccccccbbbbbdddaaaaaaaaaaaa",
"aaaaaaaaaaaaaddddbbbbbcccccccccccccccccccccbbbbbddddaaaaaaaaaaaa",
"aaaaaaaaaaaaaaddddbbbbbcccccccccccccccccccbbbbbddddaaaaaaaaaaaaa",
"aaaaaaaaaaaaaaaddddbbbbbbcccccccccccccccbbbbbbddddaaaaaaaaaaaaaa",
"aaaaaaaaaaaaaaaaddddbbbbbbbcccccccccccbbbbbbbddddaaaaaaaaaaaaaaa",
"aaaaaaaaaaaaaaaadddddbbbbbbbbbbbcbbbbbbbbbbbdddddaaaaaaaaaaaaaaa",
"aaaaaaaaaaaaaaaaadddddbbbbbbbbbbbbbbbbbbbbbdddddaaaaaaaaaaaaaaaa",
"aaaaaaaaaaaaaaaaaaadddddbbbbbbbbbbbbbbbbbdddddaaaaaaaaaaaaaaaaaa",
"aaaaaaaaaaaaaaaaaaaaddddddbbbbbbbbbbbbbddddddaaaaaaaaaaaaaaaaaaa",
"aaaaaaaaaaaaaaaaaaaaadddddddddddbdddddddddddaaaaaaaaaaaaaaaaaaaa",
"aaaaaaaaaaaaaaaaaaaaaaadddddddddddddddddddaaaaaaaaaaaaaaaaaaaaaa",
"aaaaaaaaaaaaaaaaaaaaaaaaaadddddddddddddaaaaaaaaaaaaaaaaaaaaaaaaa",
"aaaaaaaaaaaaaaaaaaaaaaaaaaaaaaaadaaaaaaaaaaaaaaaaaaaaaaaaaaaaaaa",
"aaaaaaaaaaaaaaaaaaaaaaaaaaaaaaaaaaaaaaaaaaaaaaaaaaaaaaaaaaaaaaaa",
"aaaaaaaaaaaaaaaaaaaaaaaaaaaaaaaaaaaaaaaaaaaaaaaaaaaaaaaaaaaaaaaa",
"aaaaaaaaaaaaaaaaaaaaaaaaaaaaaaaaaaaaaaaaaaaaaaaaaaaaaaaaaaaaaaaa",
"aaaaaaaaaaaaaaaaaaaaaaaaaaaaaaaaaaaaaaaaaaaaaaaaaaaaaaaaaaaaaaaa",
"aaaaaaaaaaaaaaaaaaaaaaaaaaaaaaaaaaaaaaaaaaaaaaaaaaaaaaaaaaaaaaaa",
"aaaaaaaaaaaaaaaaaaaaaaaaaaaaaaaaaaaaaaaaaaaaaaaaaaaaaaaaaaaaaaaa",
"aaaaaaaaaaaaaaaaaaaaaaaaaaaaaaaaaaaaaaaaaaaaaaaaaaaaaaaaaaaaaaaa",
"aaaaaaaaaaaaaaaaaaaaaaaaaaaaaaaaaaaaaaaaaaaaaaaaaaaaaaaaaaaaaaaa",
"aaaaaaaaaaaaaaaaaaaaaaaaaaaaaaaaaaaaaaaaaaaaaaaaaaaaaaaaaaaaaaaa",
"aaaaaaaaaaaaaaaaaaaaaaaaaaaaaaaaaaaaaaaaaaaaaaaaaaaaaaaaaaaaaaaa",
"aaaaaaaaaaaaaaaaaaaaaaaaaaaaaaaaaaaaaaaaaaaaaaaaaaaaaaaaaaaaaaaa"
};