/* XPM */
static char * coin_2[] = {
"64 64 5 1",
"a c #1B5E20",
"b c #FFD600",
"c c #FFC107",
"d c #FF6F00",
"e c #FFFFFF",
"aaaaaaaaaaaaaaaaaaaaaaaaaaaaaaaaaaaaaaaaaaaaaaaaaaaaaaaaaaaaaaaa",
"aaaaaaaaaaaaaaaaaaaaaaaaaaaaaaaaaaaaaaaaaaaaaaaaaaaaaaaaaaaaaaaa",
"aaaaaaaaaaaaaaaaaaaaaaaaaaaaaaaaaaaaaaaaaaaaaaaaaaaaaaaaaaaaaaaa",
"aaaaaaaaaaaaaaaaaaaaaaaaaaaaaaaaaaaaaaaaaaaaaaaaaaaaaaaaaaaaaaaa",
"aaaaaaaaaaaaaaaaaaaaaaaaaaaaaaaaaaaaaaaaaaaaaaaaaaaaaaaaaaaaaaaa",
"aaaaaaaaaaaaaaaaaaaaaaaaaaaaaaaaaaaaaaaaaaaaaaaaaaaaaaaaaaaaaaaa",
"aaaaaaaaaaaaaaaaaaaaaaaaaaaaaaaaaaaaaaaaaaaaaaaaaaaaaaaaaaaaaaaa",
"aaaaaaaaaaaaaaaaaaaaaaaaaaaaaaaaaaaaaaaaaaaaaaaaaaaaaaaaaaaaaaaa",
"aaaaaaaaaaaaaaaaaaaaaaaaaaaaaaaaaaaaaaaaaaaaaaaaaaaaaaaaaaaaaaaa",
"aaaaaaaaaaaaaaaaaaaaaaaaaaaaaaaaaaaaaaaaaaaaaaaaaaaaaaaaaaaaaaaa",
"aaaaaaaaaaaaaaaaaaaaaaaaaaaaaaaaaaaaaaaaaaaaaaaaaaaaaaaaaaaaaaaa",
"aaaaaaaaaaaaaaaaaaaaaaaaaaaaaaaaaaaaaaaaaaaaaaaaaaaaaaaaaaaaaaaa",
"aaaaaaaaaaaaaaaaaaaaaaaaaaaaaaaaaaaaaaaaaaaaaaaaaaaaaaaaaaaaaaaa",
"aaaaaaaaaaaaaaaaaaaaaaaaaaaaaaaadaaaaaaaaaaaaaaaaaaaaaaaaaaaaaaa",
"aaaaaaaaaaaaaaaaaaaaaaaaaadddddddddddddaaaaaaaaaaaaaaaaaaaaaaaaa",
"aaaaaaaaaaaaaaaaaaaaaaaadddddddddddddddddaaaaaaaaaaaaaaaaaaaaaaa",
"aaaaaaaaaaaaaaaaaaaaaaddddddddddbddddddddddaaaaaaaaaaaaaaaaaaaaa",
"aaaaaaaaaaaaaaaaaaaadddddddbbbbbbbbbbbdddddddaaaaaaaaaaaaaaaaaaa",
"aaaaaaaaaaaaaaaaaaadddddbbbbbbbbbbbbbbbbbdddddaaaaaaaaaaaaaaaaaa",
"aaaaaaaaaaaaaaaaaadddddbbbbbbbbbbbbbbbbbbbdddddaaaaaaaaaaaaaaaaa",
"aaaaaaaaaaaaaaaaaddddbbbbbbbbbbbcbbbbbbbbbbbddddaaaaaaaaaaaaaaaa",
"aaaaaaaaaaaaaaaaddddbbbbbbbcccccccccccbbbbbbbddddaaaaaaaaaaaaaaa",
"aaaaaaaaaaaaaaaddddbbbbbbcecccccccccccccbbbbbbddddaaaaaaaaaaaaaa",
"aaaaaaaaaaaaaaadddbbbbbeeeeeeecccccccccccbbbbbbdddaaaaaaaaaaaaaa",
"aaaaaaaaaaaaaaddddbbbbeeeeeeeeecccccccccccbbbbbddddaaaaaaaaaaaaa",
"aaaaaaaaaaaaaadddbbbbeeeeeeeeeeecccccccccccbbbbbdddaaaaaaaaaaaaa",
"aaaaaaaaaaaaadddbbbbbeeeeeeeeeeeccccccccccccbbbbbdddaaaaaaaaaaaa",
"aaaaaaaaaaaaadddbbbbceeeeeeeeeeecccccccccccccbbbbdddaaaaaaaaaaaa",
"aaaaaaaaaaaaddddbbbbeeeeeeeeeeeeeccccccccccccbbbbddddaaaaaaaaaaa",
"aaaaaaaaaaaadddbbbbcceeeeeeeeeeeccccccccccccccbbbbdddaaaaaaaaaaa",
"aaaaaaaaaaaadddbbbbcceeeeeeeeeeeccccccccccccccbbbbdddaaaaaaaaaaa",
"aaaaaaaaaaaadddbbbbcceeeeeeeeeeeccccccccccccccbbbbdddaaaaaaaaaaa",
"aaaaaaaaaaaadddbbbbccceeeeeeeeecccccccccccccccbbbbdddaaaaaaaaaaa",
"aaaaaaaaaaaadddbbbbcccceeeeeeeccccccccccccccccbbbbdddaaaaaaaaaaa",
"aaaaaaaaaaadddbbbbcccccccceccccccccccccccccccccbbbbdddaaaaaaaaaa",
"aaaaaaaaaaaadddbbbbcccccccccccccccccccccccccccbbbbdddaaaaaaaaaaa",
"aaaaaaaaaaaadddbbbbcccccccccccccccccccccccccccbbbbdddaaaaaaaaaaa",
"aaaaaaaaaaaadddbbbbcccccccccccccccccccccccccccbbbbdddaaaaaaaaaaa",
"aaaaaaaaaaaadddbbbbcccccccccccccccccccccccccccbbbbdddaaaaaaaaaaa",
"aaaaaaaaaaaadddbbbbcccccccccccccccccccccccccccbbbbdddaaaaaaaaaaa",
"aaaaaaaaaaaaddddbbbbcccccccccccccccccccccccccbbbbddddaaaaaaaaaaa",
"aaaaaaaaaaaaadddbbbbcccccccccccccccccccccccccbbbbdddaaaaaaaaaaaa",
"aaaaaaaaaaaaadddbbbbbcccccccccccccccccccccccbbbbbdddaaaaaaaaaaaa",
"aaaaaaaaaaaaaadddbbbbbcccccccccccccccccccccbbbbbdddaaaaaaaaaaaaa",
"aaaaaaaaaaaaaaddddbbbbbcccccccccccccccccccbbbbbddddaaaaaaaaaaaaa",
"aaaaaaaaaaaaaaadddbbbbbbcccccccccccccccccbbbbbbdddaaaaaaaaaaaaaa",
"aaaaaaaaaaaaaaaddddbbbbbbcccccccccccccccbbbbbbddddaaaaaaaaaaaaaa",
"aaaaaaaaaaaaaaaaddddbbbbbbbcccccccccccbbbbbbbddddaaaaaaaaaaaaaaa",
"aaaaaaaaaaaaaaaaaddddbbbbbbbbbbbcbbbbbbbbbbbddddaaaaaaaaaaaaaaaa",
"aaaaaaaaaaaaaaaaaadddddbbbbbbbbbbbbbbbbbbbdddddaaaaaaaaaaaaaaaaa",
"aaaaaaaaaaaaaaaaaaadddddbbbbbbbbbbbbbbbbbdddddaaaaaaaaaaaaaaaaaa",
"aaaaaaaaaaaaaaaaaaaadddddddbbbbbbbbbbbdddddddaaaaaaaaaaaaaaaaaaa",
"aaaaaaaaaaaaaaaaaaaaaaddddddddddbddddddddddaaaaaaaaaaaaaaaaaaaaa",
"aaaaaaaaaaaaaaaaaaaaaaaadddddddddddddddddaaaaaaaaaaaaaaaaaaaaaaa",
"aaaaaaaaaaaaaaaaaaaaaaaaaadddddddddddddaaaaaaaaaaaaaaaaaaaaaaaaa",
"aaaaaaaaaaaaaaaaaaaaaaaaaaaaaaaadaaaaaaaaaaaaaaaaaaaaaaaaaaaaaaa",
"aaaaaaaaaaaaaaaaaaaaaaaaaaaaaaaaaaaaaaaaaaaaaaaaaaaaaaaaaaaaaaaa",
"aaaaaaaaaaaaaaaaaaaaaaaaaaaaaaaaaaaaaaaaaaaaaaaaaaaaaaaaaaaaaaaa",
"aaaaaaaaaaaaaaaaaaaaaaaaaaaaaaaaaaaaaaaaaaaaaaaaaaaaaaaaaaaaaaaa",
"aaaaaaaaaaaaaaaaaaaaaaaaaaaaaaaaaaaaaaaaaaaaaaaaaaaaaaaaaaaaaaaa",
"aaaaaaaaaaaaaaaaaaaaaaaaaaaaaaaaaaaaaaaaaaaaaaaaaaaaaaaaaaaaaaaa",
"aaaaaaaaaaaaaaaaaaaaaaaaaaaaaaaaaaaaaaaaaaaaaaaaaaaaaaaaaaaaaaaa",
"aaaaaaaaaaaaaaaaaaaaaaaaaaaaaaaaaaaaaaaaaaaaaaaaaaaaaaaaaaaaaaaa",
"aaaaaaaaaaaaaaaaaaaaaaaaaaaaaaaaaaaaaaaaaaaaaaaaaaaaaaaaaaaaaaaa"
};