/* XPM */
static char * enemy_2[] = {
"64 64 6 1",
"a c #FFCDD2",
"b c #EF5350",
"c c #B71C1C",
"d c #FFFFFF",
"e c #000000",
"f c #880E4F",
"aaaaaaaaaaaaaaaaaaaaaaaaaaaaaaaaaaaaaaaaaaaaaaaaaaaaaaaaaaaaaaaa",
"aaaaaaaaaaaaaaaaaaaaaaaaaaaaaaaaaaaaaaaaaaaaaaaaaaaaaaaaaaaaaaaa",
"aaaaaaaaaaaaaaaaaaaaaaaaaaaaaaaaaaaaaaaaaaaaaaaaaaaaaaaaaaaaaaaa",
"aaaaaaaaaaaaaaaaaaaaaaaaaaaaaaaaaaaaaaaaaaaaaaaaaaaaaaaaaaaaaaaa",
"aaaaaaaaaaaaaaaaaaaaaaaaaaaaaaaaaaaaaaaaaaaaaaaaaaaaaaaaaaaaaaaa",
"aaaaaaaaaaaaaaaaaaaaaaaaaaaaaaaaaaaaaaaaaaaaaaaaaaaaaaaaaaaaaaaa",
"aaaaaaaaaaaaaaaaaaaaaaaaaaaaaaaaaaaaaaaaaaaaaaaaaaaaaaaaaaaaaaaa",
"aaaaaaaaaaaaaaaaaaaaaaaaaaaaaaaaaaaaaaaaaaaaaaaaaaaaaaaaaaaaaaaa",
"aaaaaaaaaaaaaaaaaaaaaaaaaaaaaaaaaaaaaaaaaaaaaaaaaaaaaaaaaaaaaaaa",
"aaaaaaaaaaaaaaaaaaaaaaaaaaaaaaaaaaaaaaaaaaaaaaaaaaaaaaaaaaaaaaaa",
"aaaaaaaaaaaaaaaaaaaaaaaaaaaaaaaaaaaaaaaaaaaaaaaaaaaaaaaaaaaaaaaa",
"aaaaaaaaaaaaaaaaaaaaaaaaaaaaaaaaaaaaaaaaaaaaaaaaaaaaaaaaaaaaaaaa",
"aaaaaaaaaaaaaaaaaaaaaaaaaaaaaaaacaaaaaaaaaaaaaaaaaaaaaaaaaaaaaaa",
"aaaaaaaaaaaaaaaaaaaaaaaaaacccccccccccccaaaaaaaaaaaaaaaaaaaaaaaaa",
"aaaaaaaaaaaaaaaaaaaaaaaacccccccccccccccccaaaaaaaaaaaaaaaaaaaaaaa",
"aaaaaaaaaaaaaaaaaaaaaacccccccccccccccccccccaaaaaaaaaaaaaaaaaaaaa",
"aaaaaaaaaaaaaaaaaaaacccccccccccccccccccccccccaaaaaaaaaaaaaaaaaaa",
"aaaaaaaaaaaaaaaaaaaccccccccbbbbbbbbbbbccccccccaaaaaaaaaaaaaaaaaa",
"aaaaaaaaaaaaaaaaaacccccccbbbbbbbbbbbbbbbcccccccaaaaaaaaaaaaaaaaa",
"aaaaaaaaaaaaaaaaaccccccbbbbbbbbbbbbbbbbbbbccccccaaaaaaaaaaaaaaaa",
"aaaaaaaaaaaaaaaaccccccbbbbbbbbbbbbbbbbbbbbbccccccaaaaaaaaaaaaaaa",
"aaaaaaaaaaaaaaaacccccbbbbbbbbbbbbbbbbbbbbbbbcccccaaaaaaaaaaaaaaa",
"aaaaaaaaaaaaaaacccccbbbbbbbbbbbbbbbbbbbbbbbbbcccccaaaaaaaaaaaaaa",
"aaaaaaaaaaaaaaaccccbbbbbbbbbbbbbbbbbbbbbbbbbbbccccaaaaaaaaaaaaaa",
"aaaaaaaaaaaaaacccccbbbbbbbbbbbbbbbbbbbbbbbbbbbcccccaaaaaaaaaaaaa",
"aaaaaaaaaaaaaaccccbbbbbbbbbbbbbbbbbbbbbbbbbbbbbccccaaaaaaaaaaaaa",
"aaaaaaaaaaaaacccccbbbdddddddbbbbbbbbbdddddddbbbcccccaaaaaaaaaaaa",
"aaaaaaaaaaaaaccccbbbbdddddddbbbbbbbbbdddddddbbbbccccaaaaaaaaaaaa",
"aaaaaaaaaaaaaccccbbbbdddeeedbbbbbbbbbdddeeedbbbbccccaaaaaaaaaaaa",
"aaaaaaaaaaaaaccccbbbbdddeeedbbbbbbbbbdddeeedbbbbccccaaaaaaaaaaaa",
"aaaaaaaaaaaaaccccbbbbdddeeedbbbbbbbbbdddeeedbbbbccccaaaaaaaaaaaa",
"aaaaaaaaaaaaaccccbbbbdddddddbbbbbbbbbdddddddbbbbccccaaaaaaaaaaaa",
"aaaaaaaaaaaacccccbbbbbbbbbbbbbbbbbbbbbbbbbbbbbbbcccccaaaaaaaaaaa",
"aaaaaaaaaaaaaccccbbbbbbbbbbbbbbbbbbbbbbbbbbbbbbbccccaaaaaaaaaaaa",
"aaaaaaaaaaaaaccccbbbbbbbbbbbbbbbbbbbbbbbbbbbbbbbccccaaaaaaaaaaaa",
"aaaaaaaaaaaaaccccbbbbbbbbbbbbbbbbbbbbbbbbbbbbbbbccccaaaaaaaaaaaa",
"aaaaaaaaaaaaaccccbbbbbbbbbbbbbbbbbbbbbbbbbbbbbbbccccaaaaaaaaaaaa",
"aaaaaaaaaaaaaccccbbbbbbbbbbbbbbbbbbbbbbbbbbbbbbbccccaaaaaaaaaaaa",
"aaaaaaaaaaaaacccccbbbbfffffffffffffffffffffbbbbcccccaaaaaaaaaaaa",
"aaaaaaaaaaaaaaccccbbbbfffffffffffffffffffffbbbbccccaaaaaaaaaaaaa",
"aaaaaaaaaaaaaacccccbbbfffffffffffffffffffffbbbcccccaaaaaaaaaaaaa",
"aaaaaaaaaaaaaaaccccbbbfffffffffffffffffffffbbbccccaaaaaaaaaaaaaa",
"aaaaaaaaaaaaaaacccccbbbbbbbbbbbbbbbbbbbbbbbbbcccccaaaaaaaaaaaaaa",
"aaaaaaaaaaaaaaaacccccbbbbbbbbbbbbbbbbbbbbbbbcccccaaaaaaaaaaaaaaa",
"aaaaaaaaaaaaaaaaccccccbbbbbbbbbbbbbbbbbbbbbccccccaaaaaaaaaaaaaaa",
"aaaaaaaaaaaaaaaaaccccccbbbbbbbbbbbbbbbbbbbccccccaaaaaaaaaaaaaaaa",
"aaaaaaaaaaaaaaaaaacccccccbbbbbbbbbbbbbbbcccccccaaaaaaaaaaaaaaaaa",
"aaaaaaaaaaaaaaaaaaaccccccccbbbbbbbbbbbccccccccaaaaaaaaaaaaaaaaaa",
"aaaaaaaaaaaaaaaaaaaacccccccccccccccccccccccccaaaaaaaaaaaaaaaaaaa",
"aaaaaaaaaaaaaaaaaaaaaacccccccccccccccccccccaaaaaaaaaaaaaaaaaaaaa",
"aaaaaaaaaaaaaaaaaaaaaaaacccccccccccccccccaaaaaaaaaaaaaaaaaaaaaaa",
"aaaaaaaaaaaaaaaaaaaaaaaaaacccccccccccccaaaaaaaaaaaaaaaaaaaaaaaaa",
"aaaaaaaaaaaaaaaaaaaaaaaaaaaaaaaacaaaaaaaaaaaaaaaaaaaaaaaaaaaaaaa",
"aaaaaaaaaaaaaaaaaaaaaaaaaaaaaaaaaaaaaaaaaaaaaaaaaaaaaaaaaaaaaaaa",
"aaaaaaaaaaaaaaaaaaaaaaaaaaaaaaaaaaaaaaaaaaaaaaaaaaaaaaaaaaaaaaaa",
"aaaaaaaaaaaaaaaaaaaaaaaaaaaaaaaaaaaaaaaaaaaaaaaaaaaaaaaaaaaaaaaa",
"aaaaaaaaaaaaaaaaaaaaaaaaaaaaaaaaaaaaaaaaaaaaaaaaaaaaaaaaaaaaaaaa",
"aaaaaaaaaaaaaaaaaaaaaaaaaaaaaaaaaaaaaaaaaaaaaaaaaaaaaaaaaaaaaaaa",
"aaaaaaaaaaaaaaaaaaaaaaaaaaaaaaaaaaaaaaaaaaaaaaaaaaaaaaaaaaaaaaaa",
"aaaaaaaaaaaaaaaaaaaaaaaaaaaaaaaaaaaaaaaaaaaaaaaaaaaaaaaaaaaaaaaa",
"aaaaaaaaaaaaaaaaaaaaaaaaaaaaaaaaaaaaaaaaaaaaaaaaaaaaaaaaaaaaaaaa",
"aaaaaaaaaaaaaaaaaaaaaaaaaaaaaaaaaaaaaaaaaaaaaaaaaaaaaaaaaaaaaaaa",
"aaaaaaaaaaaaaaaaaaaaaaaaaaaaaaaaaaaaaaaaaaaaaaaaaaaaaaaaaaaaaaaa",
"aaaaaaaaaaaaaaaaaaaaaaaaaaaaaaaaaaaaaaaaaaaaaaaaaaaaaaaaaaaaaaaa"
};