/* XPM */
static char * exit_1[] = {
"64 64 6 1",
"a c #263238",
"b c #6D4C41",
"c c #A1887F",
"d c #00C853",
"e c #212121",
"f c #FFD54F",
"aaaaaaaaaaaaaaaaaaaaaaaaaaaaaaaaaaaaaaaaaaaaaaaaaaaaaaaaaaaaaaaa",
"aaaaaaaaaaaaaaaaaaaaaaaaaaaaaaaaaaaaaaaaaaaaaaaaaaaaaaaaaaaaaaaa",
"aaaaaaaaaaaaaaaaaaaaaaaaaaaaaaaaaaaaaaaaaaaaaaaaaaaaaaaaaaaaaaaa",
"aaaeeeeeeeeeeeeeeeeeeeeeeeeeeeeeeeeeeeeeeeeeeeeeeeeeeeeeeeeeeaaa",
"aaaeeeeeeeeeeeeeeeeeeeeeeeeeeeeeeeeeeeeeeeeeeeeeeeeeeeeeeeeeeaaa",
"aaaeeeeeeeeeeeeeeeeeeeeeeeeeeeeeeeeeeeeeeeeeeeeeeeeeeeeeeeeeeaaa",
"aaaeeeeeeeeeeeeeeeeeeeeeeeeeeeeeeeeeeeeeeeeeeeeeeeeeeeeeeeeeeaaa",
"aaaeeeeeeeeeeeeeeeeeeeeeeeeeeeeeeeeeeeeeeeeeeeeeeeeeeeeeeeeeeaaa",
"aaaeeeeebbbbbbbbbbbbbbbbbbbbbbbbbbbbbbbbbbbbbbbbbbbbbbbbeeeeeaaa",
"aaaeeeeebbbbbbbbbbbbbbbbbbbbbbbbbbbbbbbbbbbbbbbbbbbbbbbbeeeeeaaa",
"aaaeeeeebbbbbbbbbbbbbbbbbbbbbbbbbbbbbbbbbbbbbbbbbbbbbbbbeeeeeaaa",
"aaaeeeeebbbbbbbbbbbbbbbbbbbbbbbbbbbbbbbbbbbbbbbbbbbbbbbbeeeeeaaa",
"aaaeeeeebbbbccccccccccccccccccccccccccccccccccccccccbbbbeeeeeaaa",
"aaaeeeeebbbbccccccccccccccccccccccccccccccccccccccccbbbbeeeeeaaa",
"aaaeeeeebbbbccccccccccccccccccccccccccccccccccccccccbbbbeeeeeaaa",
"aaaeeeeebbbbccccccccccccccccccccccccccccccccccccccccbbbbeeeeeaaa",
"aaaeeeeebbbbccccddddddddddddddddddddddddddddddddccccbbbbeeeeeaaa",
"aaaeeeeebbbbccccddddddddddddddddddddddddddddddddccccbbbbeeeeeaaa",
"aaaeeeeebbbbccccddddddddddddddddddddddddddddddddccccbbbbeeeeeaaa",
"aaaeeeeebbbbccccddddddddddddddddddddddddddddddddccccbbbbeeeeeaaa",
"aaaeeeeebbbbccccddddddddddddddddddddddddddddddddccccbbbbeeeeeaaa",
"aaaeeeeebbbbccccddddddddddddddddddddddddddddddddccccbbbbeeeeeaaa",
"aaaeeeeebbbbccccddddddddddddddddddddddddddddddddccccbbbbeeeeeaaa",
"aaaeeeeebbbbccccddddddddddddddddddddddddddddddddccccbbbbeeeeeaaa",
"aaaeeeeebbbbccccddddddddddddddddddddddddddddddddccccbbbbeeeeeaaa",
"aaaeeeeebbbbccccddddddddddddddddddddddddddddddddccccbbbbeeeeeaaa",
"aaaeeeeebbbbccccddddddddddddddddddddddddddddddddccccbbbbeeeeeaaa",
"aaaeeeeebbbbccccddddddddddddddddddddddddddddddddccccbbbbeeeeeaaa",
"aaaeeeeebbbbccccddddddddddddddddddddddddddddddddccccbbbbeeeeeaaa",
"aaaeeeeebbbbccccddddddddddddddddddddddddddddddddffccbbbbeeeeeaaa",
"aaaeeeeebbbbccccddddddddddddddddddddddddddddffffffccbbbbeeeeeaaa",
"aaaeeeeebbbbbbbbddddddddddddddddddddddddddddffffffbbbbbbeeeeeaaa",
"aaaeeeeebbbbbbbbddddddddddddddddddddddddddddffffffbbbbbbeeeeeaaa",
"aaaeeeeebbbbbbbbddddddddddddddddddddddddddddffffffbbbbbbeeeeeaaa",
"aaaeeeeebbbbccccddddddddddddddddddddddddddddffffffccbbbbeeeeeaaa",
"aaaeeeeebbbbccccddddddddddddddddddddddddddddddddffccbbbbeeeeeaaa",
"aaaeeeeebbbbccccddddddddddddddddddddddddddddddddccccbbbbeeeeeaaa",
"aaaeeeeebbbbccccddddddddddddddddddddddddddddddddccccbbbbeeeeeaaa",
"aaaeeeeebbbbccccddddddddddddddddddddddddddddddddccccbbbbeeeeeaaa",
"aaaeeeeebbbbccccddddddddddddddddddddddddddddddddccccbbbbeeeeeaaa",
"aaaeeeeebbbbccccddddddddddddddddddddddddddddddddccccbbbbeeeeeaaa",
"aaaeeeeebbbbccccddddddddddddddddddddddddddddddddccccbbbbeeeeeaaa",
"aaaeeeeebbbbccccddddddddddddddddddddddddddddddddccccbbbbeeeeeaaa",
"aaaeeeeebbbbccccddddddddddddddddddddddddddddddddccccbbbbeeeeeaaa",
"aaaeeeeebbbbccccddddddddddddddddddddddddddddddddccccbbbbeeeeeaaa",
"aaaeeeeebbbbccccddddddddddddddddddddddddddddddddccccbbbbeeeeeaaa",
"aaaeeeeebbbbccccddddddddddddddddddddddddddddddddccccbbbbeeeeeaaa",
"aaaeeeeebbbbccccddddddddddddddddddddddddddddddddccccbbbbeeeeeaaa",
"aaaeeeeebbbbccccccccccccccccccccccccccccccccccccccccbbbbeeeeeaaa",
"aaaeeeeebbbbccccccccccccccccccccccccccccccccccccccccbbbbeeeeeaaa",
"aaaeeeeebbbbccccccccccccccccccccccccccccccccccccccccbbbbeeeeeaaa",
"aaaeeeeebbbbccccccccccccccccccccccccccccccccccccccccbbbbeeeeeaaa",
"aaaeeeeebbbbbbbbbbbbbbbbbbbbbbbbbbbbbbbbbbbbbbbbbbbbbbbbeeeeeaaa",
"aaaeeeeebbbbbbbbbbbbbbbbbbbbbbbbbbbbbbbbbbbbbbbbbbbbbbbbeeeeeaaa",
"aaaeeeeebbbbbbbbbbbbbbbbbbbbbbbbbbbbbbbbbbbbbbbbbbbbbbbbeeeeeaaa",
"aaaeeeeebbbbbbbbbbbbbbbbbbbbbbbbbbbbbbbbbbbbbbbbbbbbbbbbeeeeeaaa",
"aaaeeeeeeeeeeeeeeeeeeeeeeeeeeeeeeeeeeeeeeeeeeeeeeeeeeeeeeeeeeaaa",
"aaaeeeeeeeeeeeeeeeeeeeeeeeeeeeeeeeeeeeeeeeeeeeeeeeeeeeeeeeeeeaaa",
"aaaeeeeeeeeeeeeeeeeeeeeeeeeeeeeeeeeeeeeeeeeeeeeeeeeeeeeeeeeeeaaa",
"aaaeeeeeeeeeeeeeeeeeeeeeeeeeeeeeeeeeeeeeeeeeeeeeeeeeeeeeeeeeeaaa",
"aaaeeeeeeeeeeeeeeeeeeeeeeeeeeeeeeeeeeeeeeeeeeeeeeeeeeeeeeeeeeaaa",
"aaaaaaaaaaaaaaaaaaaaaaaaaaaaaaaaaaaaaaaaaaaaaaaaaaaaaaaaaaaaaaaa",
"aaaaaaaaaaaaaaaaaaaaaaaaaaaaaaaaaaaaaaaaaaaaaaaaaaaaaaaaaaaaaaaa",
"aaaaaaaaaaaaaaaaaaaaaaaaaaaaaaaaaaaaaaaaaaaaaaaaaaaaaaaaaaaaaaaa"
};