/* XPM */
static char * exit_0[] = {
"64 64 5 1",
"a c #263238",
"b c #6D4C41",
"c c #A1887F",
"e c #212121",
"f c #FFD54F",
"aaaaaaaaaaaaaaaaaaaaaaaaaaaaaaaaaaaaaaaaaaaaaaaaaaaaaaaaaaaaaaaa",
"aaaaaaaaaaaaaaaaaaaaaaaaaaaaaaaaaaaaaaaaaaaaaaaaaaaaaaaaaaaaaaaa",
"aaaaaaaaaaaaaaaaaaaaaaaaaaaaaaaaaaaaaaaaaaaaaaaaaaaaaaaaaaaaaaaa",
"aaaeeeeeeeeeeeeeeeeeeeeeeeeeeeeeeeeeeeeeeeeeeeeeeeeeeeeeeeeeeaaa",
"aaaeeeeeeeeeeeeeeeeeeeeeeeeeeeeeeeeeeeeeeeeeeeeeeeeeeeeeeeeeeaaa",
"aaaeeeeeeeeeeeeeeeeeeeeeeeeeeeeeeeeeeeeeeeeeeeeeeeeeeeeeeeeeeaaa",
"aaaeeeeeeeeeeeeeeeeeeeeeeeeeeeeeeeeeeeeeeeeeeeeeeeeeeeeeeeeeeaaa",
"aaaeeeeeeeeeeeeeeeeeeeeeeeeeeeeeeeeeeeeeeeeeeeeeeeeeeeeeeeeeeaaa",
"aaaeeeeebbbbbbbbbbbbbbbbbbbbbbbbbbbbbbbbbbbbbbbbbbbbbbbbeeeeeaaa",
"aaaeeeeebbbbbbbbbbbbbbbbbbbbbbbbbbbbbbbbbbbbbbbbbbbbbbbbeeeeeaaa",
"aaaeeeeebbbbbbbbbbbbbbbbbbbbbbbbbbbbbbbbbbbbbbbbbbbbbbbbeeeeeaaa",
"aaaeeeeebbbbbbbbbbbbbbbbbbbbbbbbbbbbbbbbbbbbbbbbbbbbbbbbeeeeeaaa",
"aaaeeeeebbbbccccccccccccccccccccccccccccccccccccccccbbbbeeeeeaaa",
"aaaeeeeebbbbccccccccccccccccccccccccccccccccccccccccbbbbeeeeeaaa",
"aaaeeeeebbbbccccccccccccccccccccccccccccccccccccccccbbbbeeeeeaaa",
"aaaeeeeebbbbccccccccccccccccccccccccccccccccccccccccbbbbeeeeeaaa",
"aaaeeeeebbbbccccccccccccccccccccccccccccccccccccccccbbbbeeeeeaaa",
"aaaeeeeebbbbccccccccccccccccccccccccccccccccccccccccbbbbeeeeeaaa",
"aaaeeeeebbbbccccccccccccccccccccccccccccccccccccccccbbbbeeeeeaaa",
"aaaeeeeebbbbccccccccccccccccccccccccccccccccccccccccbbbbeeeeeaaa",
"aaaeeeeebbbbccccccccccccccccccccccccccccccccccccccccbbbbeeeeeaaa",
"aaaeeeeebbbbccccccccccccccccccccccccccccccccccccccccbbbbeeeeeaaa",
"aaaeeeeebbbbccccccccccccccccccccccccccccccccccccccccbbbbeeeeeaaa",
"aaaeeeeebbbbccccccccccccccccccccccccccccccccccccccccbbbbeeeeeaaa",
"aaaeeeeebbbbccccccccccccccccccccccccccccccccccccccccbbbbeeeeeaaa",
"aaaeeeeebbbbccccccccccccccccccccccccccccccccccccccccbbbbeeeeeaaa",
"aaaeeeeebbbbccccccccccccccccccccccccccccccccccccccccbbbbeeeeeaaa",
"aaaeeeeebbbbccccccccccccccccccccccccccccccccccccccccbbbbeeeeeaaa",
"aaaeeeeebbbbccccccccccccccccccccccccccccccccccccccccbbbbeeeeeaaa",
"aaaeeeeebbbbccccccccccccccccccccccccccccccccccffffccbbbbeeeeeaaa",
"aaaeeeeebbbbccccccccccccccccccccccccccccccccccffffccbbbbeeeeeaaa",
"aaaeeeeebbbbbbbbbbbbbbbbbbbbbbbbbbbbbbbbbbbbbbffffbbbbbbeeeeeaaa",
"aaaeeeeebbbbbbbbbbbbbbbbbbbbbbbbbbbbbbbbbbbbbbffffbbbbbbeeeeeaaa",
"aaaeeeeebbbbbbbbbbbbbbbbbbbbbbbbbbbbbbbbbbbbbbffffbbbbbbeeeeeaaa",
"aaaeeeeebbbbccccccccccccccccccccccccccccccccccffffccbbbbeeeeeaaa",
"aaaeeeeebbbbccccccccccccccccccccccccccccccccccffffccbbbbeeeeeaaa",
"aaaeeeeebbbbccccccccccccccccccccccccccccccccccccccccbbbbeeeeeaaa",
"aaaeeeeebbbbccccccccccccccccccccccccccccccccccccccccbbbbeeeeeaaa",
"aaaeeeeebbbbccccccccccccccccccccccccccccccccccccccccbbbbeeeeeaaa",
"aaaeeeeebbbbccccccccccccccccccccccccccccccccccccccccbbbbeeeeeaaa",
"aaaeeeeebbbbccccccccccccccccccccccccccccccccccccccccbbbbeeeeeaaa",
"aaaeeeeebbbbccccccccccccccccccccccccccccccccccccccccbbbbeeeeeaaa",
"aaaeeeeebbbbccccccccccccccccccccccccccccccccccccccccbbbbeeeeeaaa",
"aaaeeeeebbbbccccccccccccccccccccccccccccccccccccccccbbbbeeeeeaaa",
"aaaeeeeebbbbccccccccccccccccccccccccccccccccccccccccbbbbeeeeeaaa",
"aaaeeeeebbbbccccccccccccccccccccccccccccccccccccccccbbbbeeeeeaaa",
"aaaeeeeebbbbccccccccccccccccccccccccccccccccccccccccbbbbeeeeeaaa",
"aaaeeeeebbbbccccccccccccccccccccccccccccccccccccccccbbbbeeeeeaaa",
"aaaeeeeebbbbccccccccccccccccccccccccccccccccccccccccbbbbeeeeeaaa",
"aaaeeeeebbbbccccccccccccccccccccccccccccccccccccccccbbbbeeeeeaaa",
"aaaeeeeebbbbccccccccccccccccccccccccccccccccccccccccbbbbeeeeeaaa",
"aaaeeeeebbbbccccccccccccccccccccccccccccccccccccccccbbbbeeeeeaaa",
"aaaeeeeebbbbbbbbbbbbbbbbbbbbbbbbbbbbbbbbbbbbbbbbbbbbbbbbeeeeeaaa",
"aaaeeeeebbbbbbbbbbbbbbbbbbbbbbbbbbbbbbbbbbbbbbbbbbbbbbbbeeeeeaaa",
"aaaeeeeebbbbbbbbbbbbbbbbbbbbbbbbbbbbbbbbbbbbbbbbbbbbbbbbeeeeeaaa",
"aaaeeeeebbbbbbbbbbbbbbbbbbbbbbbbbbbbbbbbbbbbbbbbbbbbbbbbeeeeeaaa",
"aaaeeeeeeeeeeeeeeeeeeeeeeeeeeeeeeeeeeeeeeeeeeeeeeeeeeeeeeeeeeaaa",
"aaaeeeeeeeeeeeeeeeeeeeeeeeeeeeeeeeeeeeeeeeeeeeeeeeeeeeeeeeeeeaaa",
"aaaeeeeeeeeeeeeeeeeeeeeeeeeeeeeeeeeeeeeeeeeeeeeeeeeeeeeeeeeeeaaa",
"aaaeeeeeeeeeeeeeeeeeeeeeeeeeeeeeeeeeeeeeeeeeeeeeeeeeeeeeeeeeeaaa",
"aaaeeeeeeeeeeeeeeeeeeeeeeeeeeeeeeeeeeeeeeeeeeeeeeeeeeeeeeeeeeaaa",
"aaaaaaaaaaaaaaaaaaaaaaaaaaaaaaaaaaaaaaaaaaaaaaaaaaaaaaaaaaaaaaaa",
"aaaaaaaaaaaaaaaaaaaaaaaaaaaaaaaaaaaaaaaaaaaaaaaaaaaaaaaaaaaaaaaa",
"aaaaaaaaaaaaaaaaaaaaaaaaaaaaaaaaaaaaaaaaaaaaaaaaaaaaaaaaaaaaaaaa"
};