/* XPM */
static char * floor[] = {
"64 64 2 1",
"a c #2E7D32",
"b c #43A047",
"aaaaaaaabbbbbbbbaaaaaaaabbbbbbbbaaaaaaaabbbbbbbbaaaaaaaabbbbbbbb",
"aaaaaaaabbbbbbbbaaaaaaaabbbbbbbbaaaaaaaabbbbbbbbaaaaaaaabbbbbbbb",
"aaaaaaaabbbbbbbbaaaaaaaabbbbbbbbaaaaaaaabbbbbbbbaaaaaaaabbbbbbbb",
"aaaaaaaabbbbbbbbaaaaaaaabbbbbbbbaaaaaaaabbbbbbbbaaaaaaaabbbbbbbb",
"aaaaaaaabbbbbbbbaaaaaaaabbbbbbbbaaaaaaaabbbbbbbbaaaaaaaabbbbbbbb",
"aaaaaaaabbbbbbbbaaaaaaaabbbbbbbbaaaaaaaabbbbbbbbaaaaaaaabbbbbbbb",
"aaaaaaaabbbbbbbbaaaaaaaabbbbbbbbaaaaaaaabbbbbbbbaaaaaaaabbbbbbbb",
"aaaaaaaabbbbbbbbaaaaaaaabbbbbbbbaaaaaaaabbbbbbbbaaaaaaaabbbbbbbb",
"bbbbbbbbaaaaaaaabbbbbbbbaaaaaaaabbbbbbbbaaaaaaaabbbbbbbbaaaaaaaa",
"bbbbbbbbaaaaaaaabbbbbbbbaaaaaaaabbbbbbbbaaaaaaaabbbbbbbbaaaaaaaa",
"bbbbbbbbaaaaaaaabbbbbbbbaaaaaaaabbbbbbbbaaaaaaaabbbbbbbbaaaaaaaa",
"bbbbbbbbaaaaaaaabbbbbbbbaaaaaaaabbbbbbbbaaaaaaaabbbbbbbbaaaaaaaa",
"bbbbbbbbaaaaaaaabbbbbbbbaaaaaaaabbbbbbbbaaaaaaaabbbbbbbbaaaaaaaa",
"bbbbbbbbaaaaaaaabbbbbbbbaaaaaaaabbbbbbbbaaaaaaaabbbbbbbbaaaaaaaa",
"bbbbbbbbaaaaaaaabbbbbbbbaaaaaaaabbbbbbbbaaaaaaaabbbbbbbbaaaaaaaa",
"bbbbbbbbaaaaaaaabbbbbbbbaaaaaaaabbbbbbbbaaaaaaaabbbbbbbbaaaaaaaa",
"aaaaaaaabbbbbbbbaaaaaaaabbbbbbbbaaaaaaaabbbbbbbbaaaaaaaabbbbbbbb",
"aaaaaaaabbbbbbbbaaaaaaaabbbbbbbbaaaaaaaabbbbbbbbaaaaaaaabbbbbbbb",
"aaaaaaaabbbbbbbbaaaaaaaabbbbbbbbaaaaaaaabbbbbbbbaaaaaaaabbbbbbbb",
"aaaaaaaabbbbbbbbaaaaaaaabbbbbbbbaaaaaaaabbbbbbbbaaaaaaaabbbbbbbb",
"aaaaaaaabbbbbbbbaaaaaaaabbbbbbbbaaaaaaaabbbbbbbbaaaaaaaabbbbbbbb",
"aaaaaaaabbbbbbbbaaaaaaaabbbbbbbbaaaaaaaabbbbbbbbaaaaaaaabbbbbbbb",
"aaaaaaaabbbbbbbbaaaaaaaabbbbbbbbaaaaaaaabbbbbbbbaaaaaaaabbbbbbbb",
"aaaaaaaabbbbbbbbaaaaaaaabbbbbbbbaaaaaaaabbbbbbbbaaaaaaaabbbbbbbb",
"bbbbbbbbaaaaaaaabbbbbbbbaaaaaaaabbbbbbbbaaaaaaaabbbbbbbbaaaaaaaa",
"bbbbbbbbaaaaaaaabbbbbbbbaaaaaaaabbbbbbbbaaaaaaaabbbbbbbbaaaaaaaa",
"bbbbbbbbaaaaaaaabbbbbbbbaaaaaaaabbbbbbbbaaaaaaaabbbbbbbbaaaaaaaa",
"bbbbbbbbaaaaaaaabbbbbbbbaaaaaaaabbbbbbbbaaaaaaaabbbbbbbbaaaaaaaa",
"bbbbbbbbaaaaaaaabbbbbbbbaaaaaaaabbbbbbbbaaaaaaaabbbbbbbbaaaaaaaa",
"bbbbbbbbaaaaaaaabbbbbbbbaaaaaaaabbbbbbbbaaaaaaaabbbbbbbbaaaaaaaa",
"bbbbbbbbaaaaaaaabbbbbbbbaaaaaaaabbbbbbbbaaaaaaaabbbbbbbbaaaaaaaa",
"bbbbbbbbaaaaaaaabbbbbbbbaaaaaaaabbbbbbbbaaaaaaaabbbbbbbbaaaaaaaa",
"aaaaaaaabbbbbbbbaaaaaaaabbbbbbbbaaaaaaaabbbbbbbbaaaaaaaabbbbbbbb",
"aaaaaaaabbbbbbbbaaaaaaaabbbbbbbbaaaaaaaabbbbbbbbaaaaaaaabbbbbbbb",
"aaaaaaaabbbbbbbbaaaaaaaabbbbbbbbaaaaaaaabbbbbbbbaaaaaaaabbbbbbbb",
"aaaaaaaabbbbbbbbaaaaaaaabbbbbbbbaaaaaaaabbbbbbbbaaaaaaaabbbbbbbb",
"aaaaaaaabbbbbbbbaaaaaaaabbbbbbbbaaaaaaaabbbbbbbbaaaaaaaabbbbbbbb",
"aaaaaaaabbbbbbbbaaaaaaaabbbbbbbbaaaaaaaabbbbbbbbaaaaaaaabbbbbbbb",
"aaaaaaaabbbbbbbbaaaaaaaabbbbbbbbaaaaaaaabbbbbbbbaaaaaaaabbbbbbbb",
"aaaaaaaabbbbbbbbaaaaaaaabbbbbbbbaaaaaaaabbbbbbbbaaaaaaaabbbbbbbb",
"bbbbbbbbaaaaaaaabbbbbbbbaaaaaaaabbbbbbbbaaaaaaaabbbbbbbbaaaaaaaa",
"bbbbbbbbaaaaaaaabbbbbbbbaaaaaaaabbbbbbbbaaaaaaaabbbbbbbbaaaaaaaa",
"bbbbbbbbaaaaaaaabbbbbbbbaaaaaaaabbbbbbbbaaaaaaaabbbbbbbbaaaaaaaa",
"bbbbbbbbaaaaaaaabbbbbbbbaaaaaaaabbbbbbbbaaaaaaaabbbbbbbbaaaaaaaa",
"bbbbbbbbaaaaaaaabbbbbbbbaaaaaaaabbbbbbbbaaaaaaaabbbbbbbbaaaaaaaa",
"bbbbbbbbaaaaaaaabbbbbbbbaaaaaaaabbbbbbbbaaaaaaaabbbbbbbbaaaaaaaa",
"bbbbbbbbaaaaaaaabbbbbbbbaaaaaaaabbbbbbbbaaaaaaaabbbbbbbbaaaaaaaa",
"bbbbbbbbaaaaaaaabbbbbbbbaaaaaaaabbbbbbbbaaaaaaaabbbbbbbbaaaaaaaa",
"aaaaaaaabbbbbbbbaaaaaaaabbbbbbbbaaaaaaaabbbbbbbbaaaaaaaabbbbbbbb",
"aaaaaaaabbbbbbbbaaaaaaaabbbbbbbbaaaaaaaabbbbbbbbaaaaaaaabbbbbbbb",
"aaaaaaaabbbbbbbbaaaaaaaabbbbbbbbaaaaaaaabbbbbbbbaaaaaaaabbbbbbbb",
"aaaaaaaabbbbbbbbaaaaaaaabbbbbbbbaaaaaaaabbbbbbbbaaaaaaaabbbbbbbb",
"aaaaaaaabbbbbbbbaaaaaaaabbbbbbbbaaaaaaaabbbbbbbbaaaaaaaabbbbbbbb",
"aaaaaaaabbbbbbbbaaaaaaaabbbbbbbbaaaaaaaabbbbbbbbaaaaaaaabbbbbbbb",
"aaaaaaaabbbbbbbbaaaaaaaabbbbbbbbaaaaaaaabbbbbbbbaaaaaaaabbbbbbbb",
"aaaaaaaabbbbbbbbaaaaaaaabbbbbbbbaaaaaaaabbbbbbbbaaaaaaaabbbbbbbb",
"bbbbbbbbaaaaaaaabbbbbbbbaaaaaaaabbbbbbbbaaaaaaaabbbbbbbbaaaaaaaa",
"bbbbbbbbaaaaaaaabbbbbbbbaaaaaaaabbbbbbbbaaaaaaaabbbbbbbbaaaaaaaa",
"bbbbbbbbaaaaaaaabbbbbbbbaaaaaaaabbbbbbbbaaaaaaaabbbbbbbbaaaaaaaa",
"bbbbbbbbaaaaaaaabbbbbbbbaaaaaaaabbbbbbbbaaaaaaaabbbbbbbbaaaaaaaa",
"bbbbbbbbaaaaaaaabbbbbbbbaaaaaaaabbbbbbbbaaaaaaaabbbbbbbbaaaaaaaa",
"bbbbbbbbaaaaaaaabbbbbbbbaaaaaaaabbbbbbbbaaaaaaaabbbbbbbbaaaaaaaa",
"bbbbbbbbaaaaaaaabbbbbbbbaaaaaaaabbbbbbbbaaaaaaaabbbbbbbbaaaaaaaa",
"bbbbbbbbaaaaaaaabbbbbbbbaaaaaaaabbbbbbbbaaaaaaaabbbbbbbbaaaaaaaa"
};