/* XPM */
static char * player_0[] = {
"64 64 6 1",
"a c #90CAF9",
"b c #42A5F5",
"c c #1E88E5",
"d c #0D47A1",
"e c #FFFFFF",
"f c #000000",
"aaaaaaaaaaaaaaaaaaaaaaaaaaaaaaaaaaaaaaaaaaaaaaaaaaaaaaaaaaaaaaaa",
"aaaaaaaaaaaaaaaaaaaaaaaaaaaaaaaaaaaaaaaaaaaaaaaaaaaaaaaaaaaaaaaa",
"aaaaaaaaaaaaaaaaaaaaaaaaaaaaaaaaaaaaaaaaaaaaaaaaaaaaaaaaaaaaaaaa",
"aaaaaaaaaaaaaaaaaaaaaaaaaaaaaaaaaaaaaaaaaaaaaaaaaaaaaaaaaaaaaaaa",
"aaaaaaaaaaaaaaaaaaaaaaaaaaaaaaaaaaaaaaaaaaaaaaaaaaaaaaaaaaaaaaaa",
"aaaaaaaaaaaaaaaaaaaaaaaaaaaaaaaaaaaaaaaaaaaaaaaaaaaaaaaaaaaaaaaa",
"aaaaaaaaaaaaaaaaaaaaaaaaaaaaaaaaaaaaaaaaaaaaaaaaaaaaaaaaaaaaaaaa",
"aaaaaaaaaaaaaaaaaaaaaaaaaaaaaaaaaaaaaaaaaaaaaaaaaaaaaaaaaaaaaaaa",
"aaaaaaaaaaaaaaaaaaaaaaaaaaaaaaaaaaaaaaaaaaaaaaaaaaaaaaaaaaaaaaaa",
"aaaaaaaaaaaaaaaaaaaaaaaaaaaaaaaadaaaaaaaaaaaaaaaaaaaaaaaaaaaaaaa",
"aaaaaaaaaaaaaaaaaaaaaaaaaadddddddddddddaaaaaaaaaaaaaaaaaaaaaaaaa",
"aaaaaaaaaaaaaaaaaaaaaaadddddddddddddddddddaaaaaaaaaaaaaaaaaaaaaa",
"aaaaaaaaaaaaaaaaaaaaadddddddddddddddddddddddaaaaaaaaaaaaaaaaaaaa",
"aaaaaaaaaaaaaaaaaaaaddddddddddddbddddddddddddaaaaaaaaaaaaaaaaaaa",
"aaaaaaaaaaaaaaaaaaddddddddbbbbbbbbbbbbbddddddddaaaaaaaaaaaaaaaaa",
"aaaaaaaaaaaaaaaaadddddddbbbbbbbbbbbbbbbbbdddddddaaaaaaaaaaaaaaaa",
"aaaaaaaaaaaaaaaaddddddbbbbbbbbbbbbbbbbbbbbbddddddaaaaaaaaaaaaaaa",
"aaaaaaaaaaaaaaaddddddbbbbbbbbbbbbbbbbbbbbbbbddddddaaaaaaaaaaaaaa",
"aaaaaaaaaaaaaaddddddbbbbbbbbbbbbabbbbbbbbbbbbddddddaaaaaaaaaaaaa",
"aaaaaaaaaaaaaadddddbbbbbbbbaaaaaaaaaaabbbbbbbbdddddaaaaaaaaaaaaa",
"aaaaaaaaaaaaadddddbbbbbbbaaaaaaaaaaaaaaabbbbbbbdddddaaaaaaaaaaaa",
"aaaaaaaaaaaadddddbbbbbbbaaaaaaaaaaaaaaaaabbbbbbbdddddaaaaaaaaaaa",
"aaaaaaaaaaaaddddbbbbbbbaaaaaaaaabaaaaaaaaabbbbbbbddddaaaaaaaaaaa",
"aaaaaaaaaaadddddbbbbbbaaaaaabbbbbbbbbaaaaaabbbbbbdddddaaaaaaaaaa",
"aaaaaaaaaaaddddbbbbbbaaaaabbbbbbbbbbbbbaaaaabbbbbbddddaaaaaaaaaa",
"aaaaaaaaaaaddddbbbbbaaaaabbbbbbbbbbbbbbbaaaaabbbbbddddaaaaaaaaaa",
"aaaaaaaaaaddddbbbbbbaaaabbbbbbbbbbbbbbeeeeaaabbbbbbddddaaaaaaaaa",
"aaaaaaaaaaddddbbbbbaaaaabbbbbbbbbbbbbbeffeaaaabbbbbddddaaaaaaaaa",
"aaaaaaaaaaddddbbbbbaaaabbbbbbbbbbbbbbbeffeaaaabbbbbddddaaaaaaaaa",
"aaaaaaaaaaddddbbbbbaaaabbbbbbbbbbbbbbbbbbbaaaabbbbbddddaaaaaaaaa",
"aaaaaaaaaaddddbbbbbaaaabbbbbbbbbbbbbbbbbbbaaaabbbbbddddaaaaaaaaa",
"aaaaaaaaaaddddbbbbbaaaabbbbbbbbbbbbbbbbbbbaaaabbbbbddddaaaaaaaaa",
"aaaaaaaaaddddbbbbbaaaabbbbbbbbbbbbbbbbbbbbbaaaabbbbbddddaaaaaaaa",
"aaaaaaaaaaddddbbbbbaaaabbbbbbbbbbbbbbbbbbbaaaabbbbbddddaaaaaaaaa",
"aaaaaaaaaaddddbbbbbaaaabbbbbbbbbbbbbbbbbbbaaaabbbbbddddaaaaaaaaa",
"aaaaaaaaaaddddbbbbbaaaabbbbbbbbbbbbbbbbbbbaaaabbbbbddddaaaaaaaaa",
"aaaaaaaaaaddddbbbbbaaaabbbbbbbbbbbbbbbbbbbaaaabbbbbddddaaaaaaaaa",
"aaaaaaaaaaddddbbbbbaaaaabbbbbbbbbbbbbbbbbaaaaabbbbbddddaaaaaaaaa",
"aaaaaaaaaaddddbbbbbbaaaabbbbbbbbbbbbbbbbbaaaabbbbbbddddaaaaaaaaa",
"aaaaaaaaaaaddddbbbbbaaaaabbbbbbbbbbbbbbbaaaaabbbbbddddaaaaaaaaaa",
"aaaaaaaaaaaddddbbbbbbaaaaabbbbbbbbbbbbbaaaaabbbbbbddddaaaaaaaaaa",
"aaaaaaaaaaadddddbbbbbbaaaaaabbbbbbbbbaaaaaabbbbbbdddddaaaaaaaaaa",
"aaaaaaaaaaaaddddbbbbbbbaaaaaaaaabaaaaaaaaabbbbbbbddddaaaaaaaaaaa",
"aaaaaaaaaaaadddddbbbbbbbaaaaaaaaaaaaaaaaabbbbbbbdddddaaaaaaaaaaa",
"aaaaaaaaaaaaadddddbbbbbbbaaaaaaaaaaaaaaabbbbbbbdddddaaaaaaaaaaaa",
"aaaaaaaaaaaaaadddddbbbbbbbbaaaaaaaaaaabbbbbbbbdddddaaaaaaaaaaaaa",
"aaaaaaaaaaaaaaddddddbbbbbbbbbbbbabbbbbbbbbbbbddddddaaaaaaaaaaaaa",
"aaaaaaaaaaaaaaaddddddbbbbbbbbbbbbbbbbbbbbbbbddddddaaaaaaaaaaaaaa",
"aaaaaaaaaaaaaaaaddddddbbbbbbbbbbbbbbbbbbbbbddddddaaaaaaaaaaaaaaa",
"aaaaaaaaaaaaaaaaadddddddbbbbbbbbbbbbbbbbbdddddddaaaaaaaaaaaaaaaa",
"aaaaaaaaaaaaaaaaacccccccccbbbbbbbbbbbbbcccccccccaaaaaaaaaaaaaaaa",
"aaaaaaaaaaaaaaaaacccccccccddddddbddddddcccccccccaaaaaaaaaaaaaaaa",
"aaaaaaaaaaaaaaaaacccccccccdddddddddddddcccccccccaaaaaaaaaaaaaaaa",
"aaaaaaaaaaaaaaaaacccccccccdddddddddddddcccccccccaaaaaaaaaaaaaaaa",
"aaaaaaaaaaaaaaaaaaaaaaaaaadddddddddddddaaaaaaaaaaaaaaaaaaaaaaaaa",
"aaaaaaaaaaaaaaaaaaaaaaaaaaaaaaaadaaaaaaaaaaaaaaaaaaaaaaaaaaaaaaa",
"aaaaaaaaaaaaaaaaaaaaaaaaaaaaaaaaaaaaaaaaaaaaaaaaaaaaaaaaaaaaaaaa",
"aaaaaaaaaaaaaaaaaaaaaaaaaaaaaaaaaaaaaaaaaaaaaaaaaaaaaaaaaaaaaaaa",
"aaaaaaaaaaaaaaaaaaaaaaaaaaaaaaaaaaaaaaaaaaaaaaaaaaaaaaaaaaaaaaaa",
"aaaaaaaaaaaaaaaaaaaaaaaaaaaaaaaaaaaaaaaaaaaaaaaaaaaaaaaaaaaaaaaa",
"aaaaaaaaaaaaaaaaaaaaaaaaaaaaaaaaaaaaaaaaaaaaaaaaaaaaaaaaaaaaaaaa",
"aaaaaaaaaaaaaaaaaaaaaaaaaaaaaaaaaaaaaaaaaaaaaaaaaaaaaaaaaaaaaaaa",
"aaaaaaaaaaaaaaaaaaaaaaaaaaaaaaaaaaaaaaaaaaaaaaaaaaaaaaaaaaaaaaaa",
"aaaaaaaaaaaaaaaaaaaaaaaaaaaaaaaaaaaaaaaaaaaaaaaaaaaaaaaaaaaaaaaa"
};