/* XPM */
static char * wall[] = {
"64 64 3 1",
"a c #5D4037",
"b c #3E2723",
"c c #795548",
"bbbbbbbbbbbbbbbbbbbbbbbbbbbbbbbbbbbbbbbbbbbbbbbbbbbbbbbbbbbbbbbb",
"bbbbbbbbbbbbbbbbbbbbbbbbbbbbbbbbbbbbbbbbbbbbbbbbbbbbbbbbbbbbbbbb",
"bbaaacaabbaacaaaaaacaaaabbcaaaaaacaaaaaabbaaaaacaaaaaacabbaaacbb",
"bbaacaaabbacaaaaaacaaaaabbaaaaaacaaaaaacbbaaaacaaaaaacaabbaacabb",
"bbacaaaabbcaaaaaacaaaaaabbaaaaacaaaaaacabbaaacaaaaaacaaabbacaabb",
"bbcaaaaabbaaaaaacaaaaaacbbaaaacaaaaaacaabbaacaaaaaacaaaabbcaaabb",
"bbbbbbbbbbbbbbbbbbbbbbbbbbbbbbbbbbbbbbbbbbbbbbbbbbbbbbbbbbbbbbbb",
"bbbbbbbbbbbbbbbbbbbbbbbbbbbbbbbbbbbbbbbbbbbbbbbbbbbbbbbbbbbbbbbb",
"bbaaaacabbaaacaaaaaacaaabbacaaaaaacaaaaabbaaaaaacaaaaaacbbaaaabb",
"bbaaacaabbaacaaaaaacaaaabbcaaaaaacaaaaaabbaaaaacaaaaaacabbaaacbb",
"bbaacaaabbacaaaaaacaaaaabbaaaaaacaaaaaacbbaaaacaaaaaacaabbaacabb",
"bbacaaaabbcaaaaaacaaaaaabbaaaaacaaaaaacabbaaacaaaaaacaaabbacaabb",
"bbcaaaaabbaaaaaacaaaaaacbbaaaacaaaaaacaabbaacaaaaaacaaaabbcaaabb",
"bbaaaaaacaaaaaacaaaaaacaaaaaacaaaaaacaaaaaacaaaaaacaaaaaacaaaabb",
"bbaaaaacaaaaaacaaaaaacaaaaaacaaaaaacaaaaaacaaaaaacaaaaaacaaaaabb",
"bbaaaacaaaaaacaaaaaacaaaaaacaaaaaacaaaaaacaaaaaacaaaaaacaaaaaabb",
"bbbbbbbbbbbbbbbbbbbbbbbbbbbbbbbbbbbbbbbbbbbbbbbbbbbbbbbbbbbbbbbb",
"bbbbbbbbbbbbbbbbbbbbbbbbbbbbbbbbbbbbbbbbbbbbbbbbbbbbbbbbbbbbbbbb",
"bbacaaaaaacaaaaaacaaaaaacaaaaaacaaaaaacaaaaaacaaaaaacaaaaaacaabb",
"bbcaaaaaacaaaaaacaaaaaacaaaaaacaaaaaacaaaaaacaaaaaacaaaaaacaaabb",
"bbaaaaaacaaaaaacaaaaaacaaaaaacaaaaaacaaaaaacaaaaaacaaaaaacaaaabb",
"bbaaaaacaaaaaacaaaaaacaaaaaacaaaaaacaaaaaacaaaaaacaaaaaacaaaaabb",
"bbaaaacabbaaacaaaaaacaaabbacaaaaaacaaaaabbaaaaaacaaaaaacbbaaaabb",
"bbaaacaabbaacaaaaaacaaaabbcaaaaaacaaaaaabbaaaaacaaaaaacabbaaacbb",
"bbaacaaabbacaaaaaacaaaaabbaaaaaacaaaaaacbbaaaacaaaaaacaabbaacabb",
"bbacaaaabbcaaaaaacaaaaaabbaaaaacaaaaaacabbaaacaaaaaacaaabbacaabb",
"bbbbbbbbbbbbbbbbbbbbbbbbbbbbbbbbbbbbbbbbbbbbbbbbbbbbbbbbbbbbbbbb",
"bbbbbbbbbbbbbbbbbbbbbbbbbbbbbbbbbbbbbbbbbbbbbbbbbbbbbbbbbbbbbbbb",
"bbaaaaacbbaaaacaaaaaacaabbaacaaaaaacaaaabbcaaaaaacaaaaaabbaaaabb",
"bbaaaacabbaaacaaaaaacaaabbacaaaaaacaaaaabbaaaaaacaaaaaacbbaaaabb",
"bbaaacaabbaacaaaaaacaaaabbcaaaaaacaaaaaabbaaaaacaaaaaacabbaaacbb",
"bbaacaaabbacaaaaaacaaaaabbaaaaaacaaaaaacbbaaaacaaaaaacaabbaacabb",
"bbacaaaabbcaaaaaacaaaaaabbaaaaacaaaaaacabbaaacaaaaaacaaabbacaabb",
"bbcaaaaaacaaaaaacaaaaaacaaaaaacaaaaaacaaaaaacaaaaaacaaaaaacaaabb",
"bbaaaaaacaaaaaacaaaaaacaaaaaacaaaaaacaaaaaacaaaaaacaaaaaacaaaabb",
"bbaaaaacaaaaaacaaaaaacaaaaaacaaaaaacaaaaaacaaaaaacaaaaaacaaaaabb",
"bbbbbbbbbbbbbbbbbbbbbbbbbbbbbbbbbbbbbbbbbbbbbbbbbbbbbbbbbbbbbbbb",
"bbbbbbbbbbbbbbbbbbbbbbbbbbbbbbbbbbbbbbbbbbbbbbbbbbbbbbbbbbbbbbbb",
"bbaacaaaaaacaaaaaacaaaaaacaaaaaacaaaaaacaaaaaacaaaaaacaaaaaacabb",
"bbacaaaaaacaaaaaacaaaaaacaaaaaacaaaaaacaaaaaacaaaaaacaaaaaacaabb",
"bbcaaaaaacaaaaaacaaaaaacaaaaaacaaaaaacaaaaaacaaaaaacaaaaaacaaabb",
"bbaaaaaacaaaaaacaaaaaacaaaaaacaaaaaacaaaaaacaaaaaacaaaaaacaaaabb",
"bbaaaaacbbaaaacaaaaaacaabbaacaaaaaacaaaabbcaaaaaacaaaaaabbaaaabb",
"bbaaaacabbaaacaaaaaacaaabbacaaaaaacaaaaabbaaaaaacaaaaaacbbaaaabb",
"bbaaacaabbaacaaaaaacaaaabbcaaaaaacaaaaaabbaaaaacaaaaaacabbaaacbb",
"bbaacaaabbacaaaaaacaaaaabbaaaaaacaaaaaacbbaaaacaaaaaacaabbaacabb",
"bbbbbbbbbbbbbbbbbbbbbbbbbbbbbbbbbbbbbbbbbbbbbbbbbbbbbbbbbbbbbbbb",
"bbbbbbbbbbbbbbbbbbbbbbbbbbbbbbbbbbbbbbbbbbbbbbbbbbbbbbbbbbbbbbbb",
"bbaaaaaabbaaaaacaaaaaacabbaaacaaaaaacaaabbacaaaaaacaaaaabbaaaabb",
"bbaaaaacbbaaaacaaaaaacaabbaacaaaaaacaaaabbcaaaaaacaaaaaabbaaaabb",
"bbaaaacabbaaacaaaaaacaaabbacaaaaaacaaaaabbaaaaaacaaaaaacbbaaaabb",
"bbaaacaabbaacaaaaaacaaaabbcaaaaaacaaaaaabbaaaaacaaaaaacabbaaacbb",
"bbaacaaabbacaaaaaacaaaaabbaaaaaacaaaaaacbbaaaacaaaaaacaabbaacabb",
"bbacaaaaaacaaaaaacaaaaaacaaaaaacaaaaaacaaaaaacaaaaaacaaaaaacaabb",
"bbcaaaaaacaaaaaacaaaaaacaaaaaacaaaaaacaaaaaacaaaaaacaaaaaacaaabb",
"bbaaaaaacaaaaaacaaaaaacaaaaaacaaaaaacaaaaaacaaaaaacaaaaaacaaaabb",
"bbbbbbbbbbbbbbbbbbbbbbbbbbbbbbbbbbbbbbbbbbbbbbbbbbbbbbbbbbbbbbbb",
"bbbbbbbbbbbbbbbbbbbbbbbbbbbbbbbbbbbbbbbbbbbbbbbbbbbbbbbbbbbbbbbb",
"bbaaacaaaaaacaaaaaacaaaaaacaaaaaacaaaaaacaaaaaacaaaaaacaaaaaacbb",
"bbaacaaaaaacaaaaaacaaaaaacaaaaaacaaaaaacaaaaaacaaaaaacaaaaaacabb",
"bbacaaaaaacaaaaaacaaaaaacaaaaaacaaaaaacaaaaaacaaaaaacaaaaaacaabb",
"bbcaaaaaacaaaaaacaaaaaacaaaaaacaaaaaacaaaaaacaaaaaacaaaaaacaaabb",
"bbbbbbbbbbbbbbbbbbbbbbbbbbbbbbbbbbbbbbbbbbbbbbbbbbbbbbbbbbbbbbbb",
"bbbbbbbbbbbbbbbbbbbbbbbbbbbbbbbbbbbbbbbbbbbbbbbbbbbbbbbbbbbbbbbb"
};