/* XPM */
static char *_2b6c43ebc2f4f12de3b4e02aabe9f4423dGme0JCbGy371g[] = {
/* columns rows colors chars-per-pixel */
"64 64 11 1 ",
"  c None",
". c #0C0E19",
"X c #21110D",
"o c #342319",
"O c #242A3D",
"+ c #503625",
"@ c #755338",
"# c #414B66",
"$ c #677598",
"% c #B6BEC8",
"s c #503625",
/* pixels */
"                                                                ",
"                                                                ",
"                                                                ",
"                                                                ",
"                                                                ",
"                                                                ",
"                                                                ",
"                                                                ",
"                                                                ",
"                                                                ",
"                                                                ",
"                                                                ",
"             XXXXXXXXXXXXXXXXXXXXXXXXXXXXXXXXXXXXXXXX           ",
"             XXXXXXXXXXXXXXXXXXXXXXXXXXXXXXXXXXXXXXXX           ",
"             X+$$++++++$$++++++$$++++++$$++++++$$+++X           ",
"             X+$$++++++$$++++++$$++++++$$++++++$$+++X           ",
"             X@%%@@@@@@%%@@@@@@%%@@@@@@%%@@@@@@%%@@@X           ",
"             X@%%@@@@@@%%@@@@@@%%@@@@@@%%@@@@@@%%@@@X           ",
"             X@%%@@@@@@%%@@@@@@%%@@@@@@%%@@@@@@%%@@@X           ",
"             X@%%@@@@@@%%@@@@@@%%@@@@@@%%@@@@@@%%@@@X           ",
"             X@%%@@@@@@%%@@@@@@%%@@@@@@%%@@@@@@%%@@@X           ",
"             X@%%@@@@@@%%@@@@@@%%@@@@@@%%@@@@@@%%@@@X           ",
"             X@%%@@@@@@%%@@@@@@%%@@@@@@%%@@@@@@%%@@@X           ",
"             X@%%@@@@@@%%@@@@@@%%@@@@@@%%@@@@@@%%@@@X           ",
"             X@%%@@@@@@%%@@@@@@%%@@@@@@%%@@@@@@%%@@@X           ",
"             X@%%@@@@@@%%@@@@@@%%@@@@@@%%@@@@@@%%@@@X           ",
"             X@%%@@@@@@%%@@@@@@%%@@@@@@%%@@@@@@%%@@@X           ",
"             X+$$++++++$$++++++$$++++++$$++++++$$+++X           ",
"             X+$$++++++$$++++++$$++++++$$++++++$$+++X           ",
"             X$$$$%%%%$$$$%%%%$$$$%%%%$$$$%%%%$$$$$$X           ",
"             X$$$$%%%%$$$$%%%%$$$$%%%%$$$$%%%%$$$$$$X           ",
"             Xo##o#OO#o##o#OO#o##o#OO#o##o#OO#o##o##X           ",
"             Xo##o#OO#o##o#OO#o##o#OO#o##o#OO#o##o##X           ",
"             Xo##o#OO#o##o#OO#o##o#OO#o##o#OO#o##o##X           ",
"             Xo##o#OO#o##o#OO#o##o#OO#o##o#OO#o##o##X           ",
"             Xo##o#OO#o##o#OO#o##o#OO#o##o#OO#o##o##X           ",
"            .Xo$$+$OO$+$$+$OO$+$$+$OO$+$$+$OO$+$$+$$X.          ",
"            .Xo$$+$OO$+$$+$OO$+$$+$OO$+$$+$OO$+$$+$$X.          ",
"            .Xo$$+$$$$+$$+$$$$+$$+$$$$+$$+$$$$+$$+$$X.          ",
"            .Xo$$+$$$$+$$+$$$$+$$+$$$$+$$+$$$$+$$+$$X.          ",
"            .Xo$$++++++$$++++++$$++++++$$++++++$$+$$X.          ",
"            .Xo$$++++++$$++++++$$++++++$$++++++$$+$$X.          ",
"            ..X$$++++++$$++++++$$++++++$$++++++$$$$X..          ",
"            ..X$$++++++$$++++++$$++++++$$++++++$$$$X..          ",
"          ..............................................        ",
"          ..............................................        ",
"             ........................................           ",
"             ........................................           ",
"                                                                ",
"                                                                ",
"                                                                ",
"                                                                ",
"                                                                ",
"                                                                ",
"                                                                ",
"                                                                ",
"                                                                ",
"                                                                ",
"                                                                ",
"                                                                ",
"                                                                ",
"                                                                ",
"                                                                ",
"                                                                "
};