/* XPM */
static char *_bba775e106648af9cbca91a1fa87c3a9eXC4GLhqhOfNJf0[] = {
/* columns rows colors chars-per-pixel */
"64 64 2 1 ",
"  c #503625",
". c #755338",
/* pixels */
"............ ............................................... ...",
"............ ............................................... ...",
"............ ............................................... ...",
"............ ............................................... ...",
"    .   ....          .  ....            .  ....            .   ",
"    .   ....          .  ....            .  ....            .   ",
"    .   ....          .  ....            .  ....            .   ",
"    .   ....          .  ....            .  ....            .   ",
"................................................................",
"................................................................",
"................................................................",
"................................................................",
"................................................................",
"................................................................",
"................................................................",
"................................................................",
"..... ................ ................. ................. .....",
"..... ................ ................. ................. .....",
"..... ................ ................. ................. .....",
"..... ................ ................. ................. .....",
"    .   ....          .  ....            .  ....            .   ",
"    .   ....          .  ....            .  ....            .   ",
"    .   ....          .  ....            .  ....            .   ",
"    .   ....          .  ....            .  ....            .   ",
". ..............................................................",
". ..............................................................",
". ..............................................................",
". ..............................................................",
"................................................................",
"................................................................",
"................................................................",
"................................................................",
"................................................................",
"................................................................",
"................................................................",
"................................................................",
"   ...             ...             ...             ...          ",
"   ...             ...             ...             ...          ",
"   ...             ...             ...             ...          ",
"   ...             ...             ...             ...          ",
"............ ........................................... .......",
"............ ........................................... .......",
"............ ........................................... .......",
"............ ........................................... .......",
"................................................................",
"................................................................",
"....................... .................. .....................",
"....................... .................. .....................",
"   ...             ...             ...             ...          ",
"   ...             ...             ...             ...          ",
"   ...             ...             ...             ...          ",
"   ...             ...             ...             ...          ",
"............ ........................................... .......",
"............ ........................................... .......",
"............ ........................................... .......",
"............ ........................................... .......",
"................................................................",
"................................................................",
"................................................................",
"................................................................",
"................................................................",
"................................................................",
"................................................................",
"................................................................"
};