/* XPM */
static char *_f490a3fea654628bc486e4e88df2736D0Ijdnh9y6JkxNU5[] = {
/* columns rows colors chars-per-pixel */
"64 64 10 1 ",
"  c None",
". c black",
"X c #21110D",
"o c #342319",
"O c #503625",
"+ c #755338",
"@ c #D99945",
"# c #E9CE7C",
"$ c #677598",
"s c #503625",
/* pixels */
"                                                                ",
"                                                                ",
"                                                                ",
"                                                                ",
"                                                                ",
"                                                                ",
"                                                                ",
"                                                                ",
"                                                                ",
"           $XXXXXXXXXXXXXXXXXXXXXXXXXXXXXXXXXXXXXXXX$           ",
"           $XXXXXXXXXXXXXXXXXXXXXXXXXXXXXXXXXXXXXXXX$           ",
"           X++++++++++++++++++++++++++++++++++++++++X           ",
"           X++++++++++++++++++++++++++++++++++++++++X           ",
"           X++++++++++++++++++++++++++++++++++++++++X           ",
"           X++++++++++++++++++++++++++++++++++++++++X           ",
"           XOooooooooooooooooooooooooooooooooooooooOX           ",
"           XOooooooooooooooooooooooooooooooooooooooOX           ",
"           XOooooooooooooooooooooooooooooooooooooooOX           ",
"           X+oOOoOOOOoOOo+oOOoOOOOoOOo+oOOoOOOOoOOo+X           ",
"           X+oOOoOOOOoOOo+oOOoOOOOoOOo+oOOoOOOOoOOo+X           ",
"           X+oOOoOOOOoOOo+oOOoOOOOoOOo+oOOoOOOOoOOo+X           ",
"           X+oOOOOOOOoOOo+oOOOOOOOoOOo+oOOOOOOOoOOo+X           ",
"           X+oOOOOOOOoOOo+oOOOOOOOoOOo+oOOOOOOOoOOo+X           ",
"           X+oOOOOOOOoOOo+oOOOOOOOoOOo+oOOOOOOOoOOo+X           ",
"           X+oOOOOOOOOOOo+oOOOOOOOOOOo+oOOOOOOOOOOo+X           ",
"           X+oOOOOOOOOOOo+oOOOOOOOOOOo+oOOOOOOOOOOo+X           ",
"           X+oOOOOOOOOOOo+oOOOOOOOOOOo+oOOOOOOOOOOo+X           ",
"           X+oOOOOOOOOOOo+oOOOOOOOOOOo+oOOOOOOOOOOo+X           ",
"           X+oOOOOOOOOOOo+oOOOOOOOOOOo+oOOOOOOOOOOo+X           ",
"           X+oOOOOOOOOOOo+oOOOOOOOOOOo+oOOOOOOOOOOo+X           ",
"           X+oOOOOOOOO#@o+oOOOOOOOO#@o+oOOOOOOOO#@o+X           ",
"           X+oOOOOOOOO#@o+oOOOOOOOO#@o+oOOOOOOOO#@o+X           ",
"           X+oOOOOOOOO#@o+oOOOOOOOO#@o+oOOOOOOOO#@o+X           ",
"           X+oOOOOOOOO@@o+oOOOOOOOO@@o+oOOOOOOOO@@o+X           ",
"           X+oOOOOOOOO@@o+oOOOOOOOO@@o+oOOOOOOOO@@o+X           ",
"           X+oOOOOOOOO@@o+oOOOOOOOO@@o+oOOOOOOOO@@o+X           ",
"           X+oOOOOOOOOooo+oOOOOOOOOooo+oOOOOOOOOooo+X           ",
"           X+oOOOOOOOOooo+oOOOOOOOOooo+oOOOOOOOOooo+X           ",
"           X+oOOOOOOOOooo+oOOOOOOOOooo+oOOOOOOOOooo+X           ",
"           X+oOOoOOOOOOOo+oOOoOOOOOOOo+oOOoOOOOOOOo+X           ",
"           X+oOOoOOOOOOOo+oOOoOOOOOOOo+oOOoOOOOOOOo+X           ",
"           X+oOOoOOOOOOOo+oOOoOOOOOOOo+oOOoOOOOOOOo+X           ",
"           X+oOOoOOOOOOOo+oOOoOOOOOOOo+oOOoOOOOOOOo+X           ",
"           X+oOOoOOOOOOOo+oOOoOOOOOOOo+oOOoOOOOOOOo+X           ",
"           X+oOOoOOOOOOOo+oOOoOOOOOOOo+oOOoOOOOOOOo+X           ",
"           X+oOOoOOOOoOOo+oOOoOOOOoOOo+oOOoOOOOoOOo+X           ",
"           X+oOOoOOOOoOOo+oOOoOOOOoOOo+oOOoOOOOoOOo+X           ",
"           X+oOOoOOOOoOOo+oOOoOOOOoOOo+oOOoOOOOoOOo+X           ",
"           X.............X.............X............X           ",
"           X.............X.............X............X           ",
"           X.............X.............X............X           ",
"           .            ...           ...           .           ",
"           .            ...           ...           .           ",
"           .            ...           ...           .           ",
"                                                                ",
"                                                                ",
"                                                                ",
"                                                                ",
"                                                                ",
"                                                                ",
"                                                                ",
"                                                                ",
"                                                                ",
"                                                                "
};