/* XPM */
static char *_3f7d4c698c149d3a26112eba27b8071FPUB5RfE41qiEfz3[] = {
/* columns rows colors chars-per-pixel */
"64 64 7 1 ",
"  c None",
". c #AF452B",
"X c #CA6230",
"o c #E48334",
"O c #F4AA38",
"+ c #F5C94A",
"@ c #F8E97D",
/* pixels */
"                                                                ",
"                                                                ",
"                                                                ",
"                                                                ",
"                                                                ",
"                                                                ",
"                                                                ",
"                                                                ",
"                                                                ",
"                                                                ",
"                                                                ",
"                                                                ",
"                                                                ",
"                                                                ",
"                                                                ",
"                                                                ",
"                                                                ",
"                                                                ",
"                                                                ",
"                                                                ",
"                                                    o           ",
"                                        o     o    oO    o      ",
"                                      Oo     o    OO+   o     o ",
"    o                              oOOo    oO    oO+   oO    oO ",
"     o           oO              oOOOo   ooO    OO+   oO    oO  ",
"     oo      oO   oOOoo       oOOOOo   oO+O    o++   O+O   oOo  ",
"      oO      oO+   ooOOOooOOOO+OOo  oO++O   oO+O   o+O   oOO   ",
"       oOo      OO+     oOOOO+OOooooO+Oo   oOO+O   O+O   O+O    ",
"O       oOo      OOOO+OooooOOOOOOO+++OooooO+@+O   o+@   O+Oo    ",
"oO   o   oOOo      oOOO+O+++OOO++++OOooOOO+@Oo  oO+O   o+OO     ",
" o+   o   oO+Ooo      ooOOO++++++OOOOOOO+@@Oo  O++@o oO++O      ",
"  O+   oO   O++Ooo       oooOOOOOOO++++@@+O   o+++OooO++O       ",
"   oO   oO+  oO+@++Oooo     ooOOO+++@@@+Oo  oO+@@OoO+@+O        ",
"    O+O  oOO+  oO+@@@@@+++OOO++++@@@@++OoooO++@@Oo++++O         ",
"     o+OO  oOO+   oO++@@@@@@@@@@@@@++OoooO+@@@@++++@+O          ",
"      OO+OO  oO+OooooooO++@@@@@@@@OOOOO+@@@@@@+@@@+Oo           ",
"       oOO++OOOO+@@+OOOOOOO+@++@++++@@@@@@@@+@@@+Oo             ",
"         oO+@++OOOO+@@@@@@@@@@@@@@@@@@@@@@+@@@++Oo              ",
"           o++@@@++OOOO+@@@@@@@@@@@@@@@@@@@@++Oo                ",
"            oOOO+@@@@++++++@@@@@@@@@@@@@@@++Oo                  ",
"              oOO++@@@@@@@@@@@@@@@@@@@@+++Oo                    ",
"                 oO+++++@@@@@@@@@@@+++++Oo                      ",
"                     oO+++++++++++++Oo                          ",
"                          oO+++OOo                              ",
"                                                                ",
"                                                                ",
"                                                                ",
"                                                                ",
"                                                                ",
"                                                                ",
"                                                                ",
"                                                                ",
"                                                                ",
"                                                                ",
"                                                                ",
"                                                                ",
"                                                                ",
"                                                                ",
"                                                                ",
"                                                                ",
"                                                                ",
"                                                                ",
"                                                                ",
"                                                                "
};
