/* XPM */
static char *_3f7d4c698c149d3a26112eba27b8071FPUB5RfE41qiEfz3[] = {
/* columns rows colors chars-per-pixel */
"64 64 7 1 ",
"  c None",
". c #AF452B",
"X c #CA6230",
"o c #E48334",
"O c #F4AA38",
"+ c #F5C94A",
"@ c #F8E97D",
/* pixels */
"                                                                ",
"                                                                ",
"                                                                ",
"                                                                ",
"                                                                ",
"                                                                ",
"                                                                ",
"                                                                ",
"                                                                ",
"                                                                ",
"                                                                ",
"                                                                ",
"                                                                ",
"                                                                ",
"                                                                ",
"                                                                ",
"                                                                ",
"                                                                ",
"                                                                ",
"                                                                ",
"                                                                ",
"                                                                ",
"                                                                ",
"                                                                ",
"                                                                ",
"                                                                ",
"                                                                ",
"                                                                ",
"                                                                ",
"                                                              o ",
"                                                              O ",
"                                                             oO ",
"                                                             OO ",
"                                                            oO+ ",
"                                                            OOo ",
"                                                           oOOo ",
"                                                          oOO+O ",
"                                                        oOOOOoO ",
"                                                      oOOOO+oO+ ",
"                                                  o oOOOO+oOO++ ",
"                                                        oOOO++o ",
"                                                      oOOO+++OO ",
"                                                 ooooOOO+++OoO+ ",
"                                           oo ooO+O+O+OOOoooO++ ",
"                                                 oOOOOo    o++@ ",
"                                                         oO+@@+ ",
"                                                       oO+@@+Oo ",
"                                                  oOOOO+OOOOoO+ ",
"                                         oO oOOOOOOO++OooOoO+@@ ",
"                                               o+++OO   oO+@@Oo ",
"                                                    oOOO++OOooO ",
"                                             o oOOO++O+Oo   oO+ ",
"                                                  oOOO    OO+@o ",
"                                                      ooOOO++O  ",
"                                                ooooOO++O+OOo   ",
"                                       o ooOO++++O+++OOOOo      ",
"                                            oOOOOOOOo           ",
"                                                                ",
"                                                                ",
"                                                                ",
"                                                                ",
"                                                                ",
"                                                                ",
"                                                                "
};
