/* XPM */
static char *_3f7d4c698c149d3a26112eba27b8071FPUB5RfE41qiEfz3[] = {
/* columns rows colors chars-per-pixel */
"64 64 7 1 ",
"  c None",
". c #AF452B",
"X c #CA6230",
"o c #E48334",
"O c #F4AA38",
"+ c #F5C94A",
"@ c #F8E97D",
/* pixels */
"        o                                                       ",
"    o   O                                                       ",
"    O   +                                                       ",
"    O   +    o                                                  ",
" o  +o o@    o                                                  ",
" o o+o o@o   O                                                  ",
" O o@o O@O   Oo                                                 ",
" Ooo@ooO@O  o+o                                                 ",
" +oo@OoO@+o o+O                                                 ",
" @Oo@Oo+@+OoO@Oo                                                ",
" @OO@+O+@@OoO@+O                                                ",
" @+O@@OO+@+OO@@Oo                                               ",
" @@O+@+OO@@OO+@+O                                               ",
" +@+O@+OO+@+OO+@Oo                                              ",
" O@@+@@+OO@@+O+++Oo                                             ",
"  +@+O@++O+@++O++Oo                                             ",
"  O+@+@@+OO+@++OO+Oo                                            ",
"   O+++@++OoO++OoOOO                                            ",
"    +@++@++OOOO+OooOo                                           ",
"     O@++@++OoOOOOooo                                           ",
"      +@+++@+OOoooooo                                           ",
"       O+@+O+++OOOooo                                           ",
"        +O++OO+++OOoo                                           ",
"         +OO++oooOoo                                            ",
"           +OOO+ooo                                             ",
"             +OOO                                               ",
"                                                                ",
"                                                                ",
"                                                                ",
"                                                                ",
"                                                                ",
"                                                                ",
"                                                                ",
"                                                                ",
"                                                                ",
"                                                                ",
"                                                                ",
"                                                                ",
"                                                                ",
"                                                                ",
"                                                                ",
"                                                                ",
"                                                                ",
"                                                                ",
"                                                                ",
"                                                                ",
"                                                                ",
"                                                                ",
"                                                                ",
"                                                                ",
"                                                                ",
"                                                                ",
"                                                                ",
"                                                                ",
"                                                                ",
"                                                                ",
"                                                                ",
"                                                                ",
"                                                                ",
"                                                                ",
"                                                                ",
"                                                                ",
"                                                                ",
"                                                                "
};
