/* XPM */
static char *_3f7d4c698c149d3a26112eba27b8071FPUB5RfE41qiEfz3[] = {
/* columns rows colors chars-per-pixel */
"64 64 7 1 ",
"  c None",
". c #AF452B",
"X c #CA6230",
"o c #E48334",
"O c #F4AA38",
"+ c #F5C94A",
"@ c #F8E97D",
/* pixels */
"                                                  OO+@@@@@@++Oo ",
"                                                O+@@@@+OOoo     ",
"                                              O+@@@+OOoo        ",
"                                             O+@@+OOOooooo      ",
"                                            ++@++O+@@@@@@++OOo  ",
"                                           O@++O@@@@+OOoooo     ",
"                                          +@++@@@++OOooo        ",
"                                         O@++@@++OOO++OOOoo     ",
"                                        ++++@+++OOO+@@@@@@@++Oo ",
"                                       +O@+@++OOO+@@@++OOo      ",
"                                       O+++++OO+@@@+OOo         ",
"                                      +O+O@+Oo+@@+OOoo          ",
"                                      O+O++OOO@++OOOOOoo        ",
"                                     +O+O+OoO+++OO+@@@++OOoo    ",
"                                     OOo++OOO++O++@@+OOoo       ",
"                                     O+o+OoO+OO++@+OOo          ",
"                                     Ooo+OoOOoO++OOo            ",
"                                      oOOOoOoO+OOo              ",
"                                      ooOooooOOoo               ",
"                                       oooooOOo                 ",
"                                        ooooo                   ",
"                                                                ",
"                                                                ",
"                                                                ",
"                                                                ",
"                                                                ",
"                                                                ",
"                                                                ",
"                                                                ",
"                                                                ",
"                                                                ",
"                                                                ",
"                                                                ",
"                                                                ",
"                                                                ",
"                                                                ",
"                                                                ",
"                                                                ",
"                                                                ",
"                                                                ",
"                                                                ",
"                                                                ",
"                                                                ",
"                                                                ",
"                                                                ",
"                                                                ",
"                                                                ",
"                                                                ",
"                                                                ",
"                                                                ",
"                                                                ",
"                                                                ",
"                                                                ",
"                                                                ",
"                                                                ",
"                                                                ",
"                                                                ",
"                                                                ",
"                                                                ",
"                                                                ",
"                                                                ",
"                                                                ",
"                                                                ",
"                                                                "
};
