/* XPM */
static char *_3f7d4c698c149d3a26112eba27b8071FPUB5RfE41qiEfz3[] = {
/* columns rows colors chars-per-pixel */
"64 64 7 1 ",
"  c None",
". c #AF452B",
"X c #CA6230",
"o c #E48334",
"O c #F4AA38",
"+ c #F5C94A",
"@ c #F8E97D",
/* pixels */
"                                                                ",
"                                                                ",
"                                                                ",
"                                                                ",
"                                                                ",
"                                                                ",
"                                                                ",
"                                                                ",
"                                                                ",
"                                                                ",
"                                                                ",
"                                                                ",
"                                                                ",
"                                                                ",
"                                                                ",
"                                                                ",
"                                                                ",
"                                                                ",
"                                                                ",
"                                                                ",
"                                                                ",
"                                                                ",
"                                                                ",
"                                                                ",
"                                                                ",
"                                                                ",
"                                                                ",
"                                                                ",
"                                                                ",
"                                                                ",
"                                                                ",
"                                                                ",
"                                                                ",
"                                                                ",
"                                                                ",
"                                                                ",
"                                                                ",
"                                                                ",
"                                                                ",
"        o                                                       ",
"                                                                ",
"        o      o                                                ",
"        o      O                                                ",
"        O           o                                           ",
"       oO      o    o                                           ",
"       O+   o  O                                                ",
"       O+      O    o                                           ",
"       O+   o oO    o                                           ",
"       O+o  O +O    O                                           ",
"       OOo  O +O   o+o                                          ",
"       O+o oO +Oo  OOo  o                                       ",
"       O+o O+ OOO  O+o                                          ",
"       o+O O+oO+O  OOo  o                                       ",
"        OO OOO +O  O+O  O                                       ",
"        O+o +O OO  oOOo Oo                                      ",
"        O+o OO o+o  OOO OO                                      ",
"        OOO o+ooOO  O+OoOOo                                     ",
"        o+O  +OOO+o o+OO+OO                                     ",
"         OOO O+oO@O o++OoOOo                                    ",
"         O+O O@OO@+ooO+OO+OOo                                   ",
"         o++oo@+o+@+Oo++OoOOOOo                                 ",
"          O@OoO@OO@++OO++Oo+OOOOo                               ",
"           o+Oo@+o+@++Oo++OOoo+OOOo                             ",
"                                                                "
};
