/* XPM */
static char *_3f7d4c698c149d3a26112eba27b8071FPUB5RfE41qiEfz3[] = {
/* columns rows colors chars-per-pixel */
"64 64 7 1 ",
"  c None",
". c #AF452B",
"X c #CA6230",
"o c #E48334",
"O c #F4AA38",
"+ c #F5C94A",
"@ c #F8E97D",
/* pixels */
"                                    o                           ",
"                                  oO                            ",
"                                 oO                             ",
"                                O+                              ",
"                               o+                               ",
"                              OO        o                       ",
"                             o+   o   oo                        ",
"                            O+O  o   oo                         ",
"                           oOO  o   oO                          ",
"                           O+O oO  oO                           ",
"                          oOO oO  oOo                           ",
"                          O+O O+ oOo                            ",
"                         o++ oO  OO                             ",
"                        o+@O O+ O+o                             ",
"                        O++OoO o+O    o                         ",
"                       oO@+OO+ O+o   oO                         ",
"                       OO@OO+ o+Oo   O                          ",
"                       O+@O+O O@o   O+                          ",
"                      o+@+O@o ++o  OO  o                        ",
"                      O+@+O@oo@+   O+ oO                        ",
"                      +@@O++oO@O  oO  O                         ",
"                      +@@O@Oo+@o  OO oO                         ",
"                     o+@+O@Oo+@o  O+ oo                         ",
"                     O+@+O@Oo@@o oOO Oo                         ",
"                     ++@++@OO@+  o+o O                          ",
"                     +@@+@@O+@+  OOooO                          ",
"                     +@@+@@O+@+ oO+oOo                          ",
"                    o+@@+@@O@@O oO+oOo                          ",
"                    O+@@@@@+@@O o++OOO                          ",
"                    ++@@@@@@@@OoO+OOOO                          ",
"                    ++@@@@@+@@+oO+OO+O                          ",
"                    ++@@@@@+@@+OO+OOOOo                         ",
"                    O+@@@@@@@@+OO++OO+O                         ",
"                    O+@@@@@+@@+OO++OoOO                         ",
"                    o+@@@@@+@@@+OO+OoOOo                        ",
"                     +@@@@@+O@@+OO++ooOO                        ",
"                     ++@@@@+O+@++OO+o oOo                       ",
"                     O+@@@@@O+@@+OO+O  OO                       ",
"                     o+@@@@@OO+@+OoO+o oO                       ",
"                      +@@@@@Oo+@+OooOO  oO                      ",
"                      ++@@@@+oO+@OOoo+o  o                      ",
"                      O+@@@@@ooO@+Oo +O   o                     ",
"                      o+@@@@@Ooo+@Oo O+o                        ",
"                       O+@+@@+o O@+O  Oo                        ",
"                       o+@@@@@O  O@+o  Oo                       ",
"                        O+@+@@+o oO@O   O                       ",
"                        o+@@@@+O  o+Oo   o                      ",
"                         O+@+@@+o  O+O    o                     ",
"                         o+@@+@@+O  O+o                         ",
"                          O+@+O@++o  O+O                        ",
"                          oO@+oO++O   +Oo                       ",
"                           o+++oO@+o   +OO                      ",
"                            O@+OooO+O   +Oo                     ",
"                            o+++o  @+o   +Oo                    ",
"                             O+@Oo  O+O                         ",
"                              O++O   O+o                        ",
"                               O++o   OOo                       ",
"                                O++O    Oo                      ",
"                                 OO+O     o                     ",
"                                  OO+o                          ",
"                                   oOOo                         ",
"                                     OOo                        ",
"                                      oOo                       ",
"                                        Oo                      "
};