/* XPM */
static char *_3f7d4c698c149d3a26112eba27b8071FPUB5RfE41qiEfz3[] = {
/* columns rows colors chars-per-pixel */
"64 64 7 1 ",
"  c None",
". c #AF452B",
"X c #CA6230",
"o c #E48334",
"O c #F4AA38",
"+ c #F5C94A",
"@ c #F8E97D",
/* pixels */
"oO++@@@@@@+OO                                                   ",
"    ooOO+@@@@+O                                                 ",
"       ooOO+@@@+O                                               ",
"     oooooOOO+@@+O                                              ",
" oOO++@@@@@@+O++@++                                             ",
"    ooooOO+@@@@O++@O                                            ",
"       oooOO++@@@++@+                                           ",
"    ooOOO++OOO++@@++@O                                          ",
"oO++@@@@@@@+OOO+++@++++                                         ",
"     oOO++@@@+OOO++@+@O+                                        ",
"        oOO+@@@+OO+++++O                                        ",
"         ooOO+@@+oO+@O+O+                                       ",
"       ooOOOOO++@OOO++O+O                                       ",
"   ooOO++@@@+OO+++OoO+O+O+                                      ",
"      ooOO+@@++O++OOO++oOO                                      ",
"         oOO+@++OO+OoO+o+O                                      ",
"           oOO++OoOOoO+ooO                                      ",
"             oOO+OoOoOOOo                                       ",
"              ooOOooooOoo                                       ",
"                oOOooooo                                        ",
"                  ooooo                                         ",
"                                                                ",
"                                                                ",
"                                                                ",
"                                                                ",
"                                                                ",
"                                                                ",
"                                                                ",
"                                                                ",
"                                                                ",
"                                                                ",
"                                                                ",
"                                                                ",
"                                                                ",
"                                                                ",
"                                                                ",
"                                                                ",
"                                                                ",
"                                                                ",
"                                                                ",
"                                                                ",
"                                                                ",
"                                                                ",
"                                                                ",
"                                                                ",
"                                                                ",
"                                                                ",
"                                                                ",
"                                                                ",
"                                                                ",
"                                                                ",
"                                                                ",
"                                                                ",
"                                                                ",
"                                                                ",
"                                                                ",
"                                                                ",
"                                                                ",
"                                                                ",
"                                                                ",
"                                                                ",
"                                                                ",
"                                                                ",
"                                                                "
};
