/* XPM */
static char *_3f7d4c698c149d3a26112eba27b8071FPUB5RfE41qiEfz3[] = {
/* columns rows colors chars-per-pixel */
"64 64 7 1 ",
"  c None",
". c #AF452B",
"X c #CA6230",
"o c #E48334",
"O c #F4AA38",
"+ c #F5C94A",
"@ c #F8E97D",
/* pixels */
"                                                                ",
"                                                                ",
"                                                                ",
"                                                                ",
"                                                                ",
"                                                                ",
"                                                                ",
"                                                                ",
"                                                                ",
"                                                                ",
"                                                                ",
"                                                                ",
"                                                                ",
"                                                                ",
"                                                                ",
"                                                                ",
"                                                                ",
"                                                                ",
"                                                                ",
"                                                                ",
"                                                                ",
"                                                                ",
"                                                                ",
"                                                                ",
"                                                                ",
"                                                                ",
"                                                                ",
"                                                                ",
"                                                                ",
"                                                                ",
"                                                                ",
"                                                                ",
"                                                                ",
"                                                                ",
"                                                                ",
"                                                                ",
"                                                                ",
"                                                                ",
"                                                                ",
"                                                       o        ",
"                                                                ",
"                                                o      o        ",
"                                                O      o        ",
"                                           o           O        ",
"                                           o    o      Oo       ",
"                                                O  o   +O       ",
"                                           o    O      +O       ",
"                                           o    Oo o   +O       ",
"                                           O    O+ O  o+O       ",
"                                          o+o   O+ O  oOO       ",
"                                       o  oOO  oO+ Oo o+O       ",
"                                          o+O  OOO +O o+O       ",
"                                       o  oOO  O+Oo+O O+o       ",
"                                       O  O+O  O+ OOO OO        ",
"                                      oO oOOo  OO O+ o+O        ",
"                                      OO OOO  o+o OO o+O        ",
"                                     oOOoO+O  OOoo+o OOO        ",
"                                     OO+OO+o o+OOO+  O+o        ",
"                                    oOOoO++o O@Oo+O OOO         ",
"                                   oOO+OO+Ooo+@OO@O O+O         ",
"                                 oOOOOoO++oO+@+o+@oo++o         ",
"                               oOOOO+oO++OO++@OO@OoO@O          ",
"                             oOOO+ooOO++oO++@+o+@oO+o           ",
"                                                                "
};

