/* XPM */
static char *_3f7d4c698c149d3a26112eba27b8071FPUB5RfE41qiEfz3[] = {
/* columns rows colors chars-per-pixel */
"64 64 7 1 ",
"  c None",
". c #AF452B",
"X c #CA6230",
"o c #E48334",
"O c #F4AA38",
"+ c #F5C94A",
"@ c #F8E97D",
/* pixels */
"                           o                                    ",
"                            Oo                                  ",
"                             Oo                                 ",
"                              +O                                ",
"                               +o                               ",
"                       o        OO                              ",
"                        oo   o   +o                             ",
"                         oo   o  O+O                            ",
"                          Oo   o  OOo                           ",
"                           Oo  Oo O+O                           ",
"                           oOo  Oo OOo                          ",
"                            oOo +O O+O                          ",
"                             OO  Oo ++o                         ",
"                             o+O +O O@+o                        ",
"                         o    O+o OoO++O                        ",
"                         Oo   o+O +OO+@Oo                       ",
"                          O   oO+o +OO@OO                       ",
"                          +O   o@O O+O@+O                       ",
"                        o  OO  o++ o@O+@+o                      ",
"                        Oo +O   +@oo@O+@+O                      ",
"                         O  Oo  O@Oo++O@@+                      ",
"                         Oo OO  o@+oO@O@@+                      ",
"                         oo +O  o@+oO@O+@+o                     ",
"                         oO OOo o@@oO@O+@+O                     ",
"                          O o+o  +@OO@++@++                     ",
"                          OooOO  +@+O@@+@@+                     ",
"                          oOo+Oo +@+O@@+@@+                     ",
"                          oOo+Oo O@@O@@+@@+o                    ",
"                          OOO++o O@@+@@@@@+O                    ",
"                          OOOO+OoO@@@@@@@@++                    ",
"                          O+OO+Oo+@@+@@@@@++                    ",
"                         oOOOO+OO+@@+@@@@@++                    ",
"                         O+OO++OO+@@@@@@@@+O                    ",
"                         OOoO++OO+@@+@@@@@+O                    ",
"                        oOOoO+OO+@@@+@@@@@+o                    ",
"                        OOoo++OO+@@O+@@@@@+                     ",
"                       oOo o+OO++@+O+@@@@++                     ",
"                       OO  O+OO+@@+O@@@@@+O                     ",
"                       Oo o+OoO+@+OO@@@@@+o                     ",
"                      Oo  OOooO+@+oO@@@@@+                      ",
"                      o  o+ooOO@+Oo+@@@@++                      ",
"                     o   O+ oO+@Ooo@@@@@+O                      ",
"                        o+O oO@+ooO@@@@@+o                      ",
"                        oO  O+@O o+@@+@+O                       ",
"                       oO  o+@O  O@@@@@+o                       ",
"                       O   O@Oo o+@@+@+O                        ",
"                      o   oO+o  O+@@@@+o                        ",
"                     o    O+O  o+@@+@+O                         ",
"                         o+O  O+@@+@@+o                         ",
"                        O+O  o++@O+@+O                          ",
"                       oO+   O++Oo+@Oo                          ",
"                      OO+   o+@Oo+++o                           ",
"                     oO+   O+OooO+@O                            ",
"                    oO+   o+@  o+++o                            ",
"                         O+O  oO@+O                             ",
"                        o+O   O++O                              ",
"                       oOO   o++O                               ",
"                      oO    O++O                                ",
"                     o     O+OO                                 ",
"                          o+OO                                  ",
"                         oOOo                                   ",
"                        oOO                                     ",
"                       oOo                                      ",
"                      oO                                        "
};