/* XPM */
static char *_3f7d4c698c149d3a26112eba27b8071FPUB5RfE41qiEfz3[] = {
/* columns rows colors chars-per-pixel */
"64 64 7 1 ",
"  c None",
". c #AF452B",
"X c #CA6230",
"o c #E48334",
"O c #F4AA38",
"+ c #F5C94A",
"@ c #F8E97D",
/* pixels */
"                                                                ",
"                                                                ",
"                                                                ",
"                                                                ",
"                                                                ",
"                                                                ",
"                                                                ",
"                                                                ",
"                                                                ",
"                                                                ",
"                                                                ",
"                                                                ",
"                                                                ",
"                                                                ",
"                                                                ",
"                                                                ",
"                                                                ",
"                                                                ",
"                                                                ",
"                                                                ",
"                                                                ",
"                                                                ",
"                                                                ",
"                                                                ",
"                                                                ",
"                                                                ",
"                                                                ",
"                                                                ",
"                                                                ",
"                                                                ",
"                                                                ",
"                                                                ",
"                                                                ",
"                                                                ",
"                                                                ",
"                                                                ",
"                                                                ",
"                                                                ",
"                                                                ",
"             +OOO                                               ",
"           +OOO+ooo                                             ",
"         +OO++oooOoo                                            ",
"        +O++OO+++OOoo                                           ",
"       O+@+O+++OOOooo                                           ",
"      +@+++@+OOoooooo                                           ",
"     O@++@++OoOOOOooo                                           ",
"    +@++@++OOOO+OooOo                                           ",
"   O+++@++OoO++OoOOO                                            ",
"  O+@+@@+OO+@++OO+Oo                                            ",
"  +@+O@++O+@++O++Oo                                             ",
" O@@+@@+OO@@+O+++Oo                                             ",
" +@+O@+OO+@+OO+@Oo                                              ",
" @@O+@+OO@@OO+@+O                                               ",
" @+O@@OO+@+OO@@Oo                                               ",
" @OO@+O+@@OoO@+O                                                ",
" @Oo@Oo+@+OoO@Oo                                                ",
" +oo@OoO@+o o+O                                                 ",
" Ooo@ooO@O  o+o                                                 ",
" O o@o O@O   Oo                                                 ",
" o o+o o@o   O                                                  ",
" o  +o o@    o                                                  ",
"    O   +    o                                                  ",
"    O   +                                                       ",
"    o   O                                                       "
};
