/* XPM */
static char *_3f7d4c698c149d3a26112eba27b8071FPUB5RfE41qiEfz3[] = {
/* columns rows colors chars-per-pixel */
"64 64 7 1 ",
"  c None",
". c #AF452B",
"X c #CA6230",
"o c #E48334",
"O c #F4AA38",
"+ c #F5C94A",
"@ c #F8E97D",
/* pixels */
"                                                                ",
"                                                                ",
"                                                                ",
"                                                                ",
"                                                                ",
"                                                                ",
"                                                                ",
"                                            oOOOOOOOo           ",
"                                       o ooOO++++O+++OOOOo      ",
"                                                ooooOO++O+OOo   ",
"                                                      ooOOO++O  ",
"                                                  oOOO    OO+@o ",
"                                             o oOOO++O+Oo   oO+ ",
"                                                    oOOO++OOooO ",
"                                               o+++OO   oO+@@Oo ",
"                                         oO oOOOOOOO++OooOoO+@@ ",
"                                                  oOOOO+OOOOoO+ ",
"                                                       oO+@@+Oo ",
"                                                         oO+@@+ ",
"                                                 oOOOOo    o++@ ",
"                                           oo ooO+O+O+OOOoooO++ ",
"                                                 ooooOOO+++OoO+ ",
"                                                      oOOO+++OO ",
"                                                        oOOO++o ",
"                                                  o oOOOO+oOO++ ",
"                                                      oOOOO+oO+ ",
"                                                        oOOOOoO ",
"                                                          oOO+O ",
"                                                           oOOo ",
"                                                            OOo ",
"                                                            oO+ ",
"                                                             OO ",
"                                                             oO ",
"                                                              O ",
"                                                              o ",
"                                                                ",
"                                                                ",
"                                                                ",
"                                                                ",
"                                                                ",
"                                                                ",
"                                                                ",
"                                                                ",
"                                                                ",
"                                                                ",
"                                                                ",
"                                                                ",
"                                                                ",
"                                                                ",
"                                                                ",
"                                                                ",
"                                                                ",
"                                                                ",
"                                                                ",
"                                                                ",
"                                                                ",
"                                                                ",
"                                                                ",
"                                                                ",
"                                                                ",
"                                                                ",
"                                                                ",
"                                                                ",
"                                                                "
};
