/* XPM */
static char *a6ab17f8c1ec449af357d35c5cb84d67yI42EZOxShgCQI76[] = {
/* columns rows colors chars-per-pixel */
"64 64 21 1 ",
"  c None",
". c #2D284B",
"X c #374275",
"o c #584D40",
"O c #861274",
"+ c #395480",
"@ c #49719D",
"# c #6C59B1",
"$ c #EA56A8",
"% c #B568DE",
"& c #568BB5",
"* c #729FDC",
"= c #79CBF3",
"- c #F69591",
"; c #D4D1BF",
": c #88C6FF",
"> c #88C7FF",
", c #9AE9FF",
"< c #EDEBDB",
"1 c #CAFFFF",
"2 c #FFFFF3",
/* pixels */
"                                                                ",
"                                                                ",
"                                                                ",
"                                                                ",
"                                            XXXXXX              ",
"                                            XXXXXX              ",
"                                          XX,,,,,,XX            ",
"                                          XX,,,,,,XX            ",
"                                        XX,,,,11,,,,XX          ",
"                                        XX,,,,11,,,,XX          ",
"                                        XX>>..,,..,,XX          ",
"                                        XX>>..,,..,,XX          ",
"                                        XX>>,,,,,,>>XX          ",
"                                        XX>>,,,,,,>>XX          ",
"                                          XX>>XX>>XX            ",
"                                          XX>>XX>>XX            ",
"                                            XXXX>>XX            ",
"                                            XXXX>>XX            ",
"                                                XX  ..          ",
"                                                XX  ..          ",
"                                                  ..&&..        ",
"                                                  ..&&..        ",
"                oo                                  ..          ",
"                oo                                  ..          ",
"              oo22oo                                            ",
"              oo22oo                                            ",
"            oo22<<oo                                            ",
"            oo22<<oo                                            ",
"              oooo<<oo    ..............                        ",
"              oooo<<oo    ..............                        ",
"                  oo;;....&&&&&&&&&&@@@@....                    ",
"                  oo;;....&&&&&&&&&&@@@@....                    ",
"                  ....&&,,111111,,,,,,@@@@++....                ",
"                  ....&&,,111111,,,,,,@@@@++....                ",
"                ..@@&&,,111111,,,,,,,,::@@@@++##..    oo        ",
"                ..@@&&,,111111,,,,,,,,::@@@@++##..    oo        ",
"              ..@@&&,,,,,,,,,,,,,,,,::::::@@++++oooooo22oo      ",
"              ..@@&&,,,,,,,,,,,,,,,,::::::@@++++oooooo22oo      ",
"              ..@@::,,OOOO,,,,,,,,::OOOO::::++oo;;<<22oo        ",
"              ..@@::,,OOOO,,,,,,,,::OOOO::::++oo;;<<22oo        ",
"            ..@@@@::OO--$$OO,,::::OO--$$OO**++++oooooo<<oo      ",
"            ..@@@@::OO--$$OO,,::::OO--$$OO**++++oooooo<<oo      ",
"            ..++@@::OO$$--OO::::::OO$$--OO**++++++##..oo        ",
"            ..++@@::OO$$--OO::::::OO$$--OO**++++++##..oo        ",
"            ..++++::::OOOO::::::::**OOOO****++++++##..          ",
"            ..++++::::OOOO::::::::**OOOO****++++++##..          ",
"            ..++++++::::::::::************++++++++##..          ",
"            ..++++++::::::::::************++++++++##..          ",
"            ..##++++++******************++++++++##%%..          ",
"            ..##++++++******************++++++++##%%..          ",
"              ..##++++**++**......**++**++######%%..            ",
"              ..##++++**++**......**++**++######%%..            ",
"                ..##########################%%....              ",
"                ..##########################%%....              ",
"                  ............................                  ",
"                  ............................                  ",
"                                                                ",
"                                                                ",
"                                                                ",
"                                                                ",
"                                                                ",
"                                                                ",
"                                                                ",
"                                                                "
};
