/* XPM */
static char *a6ab17f8c1ec449af357d35c5cb84d67yI42EZOxShgCQI76[] = {
/* columns rows colors chars-per-pixel */
"64 64 21 1 ",
"  c None",
". c #2D284B",
"X c #374275",
"o c #584D40",
"O c #861274",
"+ c #395480",
"@ c #49719D",
"# c #6C59B1",
"$ c #EA56A8",
"% c #B568DE",
"& c #568BB5",
"* c #729FDC",
"= c #79CBF3",
"- c #F69591",
"; c #D4D1BF",
": c #88C6FF",
"> c #88C7FF",
", c #9AE9FF",
"< c #EDEBDB",
"1 c #CAFFFF",
"2 c #FFFFF3",
/* pixels */
"                                        XX                      ",
"                                        XX                      ",
"                                                                ",
"                                                                ",
"                                                                ",
"                                                                ",
"                                                                ",
"                                                                ",
"                                                                ",
"                                                                ",
"                                                                ",
"                                                                ",
"                                                                ",
"                                                                ",
"                                                                ",
"                                                                ",
"                                                                ",
"                                                                ",
"                                                                ",
"                                                                ",
"                                                                ",
"                                                                ",
"  XXXX                                                          ",
"  XXXX                                                          ",
"XX,,11XX                                                        ",
"XX,,11XX                                                        ",
"XX>>,,,,XX                  ............                        ",
"XX>>,,,,XX                  ............                        ",
"XX>>>>>>XX              ....@@@@@@@@++##..                      ",
"XX>>>>>>XX              ....@@@@@@@@++##..                      ",
"  XXXXXXXX            ..&&&&&&&&@@@@@@++##..                    ",
"  XXXXXXXX            ..&&&&&&&&@@@@@@++##..                    ",
"                    ..&&====&&&&&&@@@@@@++##..                  ",
"                    ..&&====&&&&&&@@@@@@++##..                  ",
"                  ..,,1111,,,,&&&&@@@@@@++++##..                ",
"                  ..,,1111,,,,&&&&@@@@@@++++##..                ",
"                  XX,,,,,,,,,,,,@@@@@@@@++++oo##..              ",
"                  XX,,,,,,,,,,,,@@@@@@@@++++oo##..              ",
"                XX::::,,OOOO,,::::@@@@oooooo22oo..              ",
"                XX::::,,OOOO,,::::@@@@oooooo22oo..              ",
"                XXOO::OO$$--OO::::@@oo;;<<22oo####..            ",
"                XXOO::OO$$--OO::::@@oo;;<<22oo####..            ",
"                XXOO::OO--$$OO::::@@@@oooooo<<oo##..            ",
"                XXOO::OO--$$OO::::@@@@oooooo<<oo##..            ",
"                XX**::::OOOO::::@@@@@@++++++oo++##..            ",
"                XX**::::OOOO::::@@@@@@++++++oo++##..            ",
"                XX****::::::::@@@@@@++++++++++##%%..            ",
"                XX****::::::::@@@@@@++++++++++##%%..            ",
"                ..##**++**++++++++++++++++++####..              ",
"                ..##**++**++++++++++++++++++####..              ",
"                  ......**++++++++++++######%%..                ",
"                  ......**++++++++++++######%%..                ",
"                    ..++++++++########%%......                  ",
"                    ..++++++++########%%......                  ",
"                      ..................                        ",
"                      ..................                        ",
"                                                                ",
"                                                                ",
"                                                                ",
"                                                                ",
"                                                                ",
"                                                                ",
"                                                                ",
"                                                                "
};
