/* XPM */
static char *a6ab17f8c1ec449af357d35c5cb84d67yI42EZOxShgCQI76[] = {
/* columns rows colors chars-per-pixel */
"64 64 21 1 ",
"  c None",
". c #2D284B",
"X c #374275",
"o c #584D40",
"O c #861274",
"+ c #395480",
"@ c #49719D",
"# c #6C59B1",
"$ c #EA56A8",
"% c #B568DE",
"& c #568BB5",
"* c #729FDC",
"= c #79CBF3",
"- c #F69591",
"; c #D4D1BF",
": c #88C6FF",
"> c #88C7FF",
", c #9AE9FF",
"< c #EDEBDB",
"1 c #CAFFFF",
"2 c #FFFFF3",
/* pixels */
"                  XX                                            ",
"                  XX                                            ",
"                                                                ",
"                                                                ",
"                                                                ",
"                                                                ",
"                                                                ",
"                                                                ",
"                                                                ",
"                                                                ",
"                                                                ",
"                                                                ",
"                                                                ",
"                                                                ",
"                                                                ",
"                                                                ",
"                                                                ",
"                                                                ",
"                                                                ",
"                                                                ",
"                                                                ",
"                                                                ",
"                                                          XXXX  ",
"                                                          XXXX  ",
"                                                        XX11,,XX",
"                                                        XX11,,XX",
"                oo  ............                      XX,,,,>>XX",
"                oo  ............                      XX,,,,>>XX",
"              oo22oo##++@@@@@@@@....                  XX>>>>>>XX",
"              oo22oo##++@@@@@@@@....                  XX>>>>>>XX",
"            oo22<<oo++@@@@@@&&&&&&&&..                XXXXXXXX  ",
"            oo22<<oo++@@@@@@&&&&&&&&..                XXXXXXXX  ",
"              oooo<<oo@@@@&&&&&&====&&..                        ",
"              oooo<<oo@@@@&&&&&&====&&..                        ",
"            ..##++oo;;oo@@&&&&,,,,1111,,..                      ",
"            ..##++oo;;oo@@&&&&,,,,1111,,..                      ",
"          ..##++++++oo@@@@@@,,,,,,,,,,,,XX                      ",
"          ..##++++++oo@@@@@@,,,,,,,,,,,,XX                      ",
"          ..##++++++@@@@@@::::,,OOOO,,::::XX                    ",
"          ..##++++++@@@@@@::::,,OOOO,,::::XX                    ",
"        ..####++++++@@@@@@::::OO--$$OO::OOXX                    ",
"        ..####++++++@@@@@@::::OO--$$OO::OOXX                    ",
"        ..##++++++++@@@@@@::::OO$$--OO::OOXX                    ",
"        ..##++++++++@@@@@@::::OO$$--OO::OOXX                    ",
"        ..##++++++++++@@@@@@::::OOOO::::**XX                    ",
"        ..##++++++++++@@@@@@::::OOOO::::**XX                    ",
"        ..%%##++++++++++@@@@@@::::::::****XX                    ",
"        ..%%##++++++++++@@@@@@::::::::****XX                    ",
"          ..####++++++++++++++++++**++**##..                    ",
"          ..####++++++++++++++++++**++**##..                    ",
"            ..%%######++++++++++++**......                      ",
"            ..%%######++++++++++++**......                      ",
"              ......%%########++++++++..                        ",
"              ......%%########++++++++..                        ",
"                    ..................                          ",
"                    ..................                          ",
"                                                                ",
"                                                                ",
"                                                                ",
"                                                                ",
"                                                                ",
"                                                                ",
"                                                                ",
"                                                                "
};
