/* XPM */
static char *a6ab17f8c1ec449af357d35c5cb84d67yI42EZOxShgCQI76[] = {
/* columns rows colors chars-per-pixel */
"64 64 12 1 ",
"  c None",
". c #171730",
"X c #2B2E52",
"o c #264547",
"O c #3D466A",
"+ c #51A38A",
"@ c #63C99F",
"# c #5BC6B8",
"$ c #65E3F9",
"% c #98F0BF",
"& c #CEFFC0",
"* c #D2DDE8",
/* pixels */
"                                                                ",
"                                                                ",
"                                                                ",
"                                                                ",
"                                                                ",
"                                                                ",
"                                                                ",
"                                                                ",
"                                                                ",
"                                                                ",
"                                         oooo                   ",
"                                         oooo                   ",
"                                       oo%%@@oo                 ",
"                                       oo%%@@oo                 ",
"                             oooooooo  oo@@++oo                 ",
"                             oooooooo  oo@@++oo                 ",
"                         oooo%%@@@@@@oo@@++oo                   ",
"                         oooo%%@@@@@@oo@@++oo                   ",
"                       oo%%%%%%%%@@@@@@++oo                     ",
"                       oo%%%%%%%%@@@@@@++oo                     ",
"                     oo&&&&%%%%%%@@@@@@++oo    oo               ",
"                     oo&&&&%%%%%%@@@@@@++oo    oo               ",
"                   oo&&&&%%%%%%@@@@@@@@++++oooo@@oo             ",
"                   oo&&&&%%%%%%@@@@@@@@++++oooo@@oo             ",
"                   oo%%%%%%%%@@@@@@@@++++++++##oo               ",
"                   oo%%%%%%%%@@@@@@@@++++++++##oo               ",
"                 oo%%%%....@@@@@@@@@@++++++##oo                 ",
"                 oo%%%%....@@@@@@@@@@++++++##oo                 ",
"                 oo@@..XX**..@@@@@@@@++++++##oo                 ",
"                 oo@@..XX**..@@@@@@@@++++++##oo                 ",
"                 oo@@..OOXX..@@@@@@++++++++##oo                 ",
"                 oo@@..OOXX..@@@@@@++++++++##oo                 ",
"                 oo@@@@....@@@@@@++++++++++##oo                 ",
"                 oo@@@@....@@@@@@++++++++++##oo                 ",
"                 oo@@@@@@@@@@++++++++++++++##oo                 ",
"                 oo@@@@@@@@@@++++++++++++++##oo                 ",
"                 oo++++oo++++++++++++++++##$$oo                 ",
"                 oo++++oo++++++++++++++++##$$oo                 ",
"                 oooooo++++++++++++++++++##oo                   ",
"                 oooooo++++++++++++++++++##oo                   ",
"                   oo++++++++++++++++####$$oo                   ",
"                   oo++++++++++++++++####$$oo                   ",
"                   oo##++++++++++######$$oo                     ",
"                   oo##++++++++++######$$oo                     ",
"                     oo++++++######$$oooo                       ",
"                     oo++++++######$$oooo                       ",
"                       oooooooooooooo                           ",
"                       oooooooooooooo                           ",
"                                                                ",
"                                                                ",
"                                                                ",
"                                                                ",
"                                                                ",
"                                                                ",
"                                                                ",
"                                                                ",
"                                                                ",
"                                                                ",
"                                                                ",
"                                                                ",
"                                                                ",
"                                                                ",
"                                                                ",
"                                                                "
};
