/* XPM */
static char *image[] = {
/* columns rows colors chars-per-pixel */
"64 64 12 1",
"  c None",
". c #171730",
"X c #2B2E52",
"o c #264547",
"O c #3D466A",
"+ c #51A38A",
"@ c #63C99F",
"# c #5BC6B8",
"$ c #65E3F9",
"% c #98F0BF",
"& c #CEFFC0",
"* c #D2DDE8",
/* pixels */
"                                                                ",
"                                                                ",
"                                                                ",
"                                                                ",
"                                                                ",
"                                                                ",
"                                                                ",
"                                                                ",
"                        oooo                                    ",
"                        oooo                                    ",
"                      oo@@%%oo                                  ",
"                      oo@@%%oo                                  ",
"                      oo++@@++oooooooooo                        ",
"                      oo++@@++oooooooooo                        ",
"                    oo  oo@@%%%%%%%%%%@@oooo                    ",
"                    oo  oo@@%%%%%%%%%%@@oooo                    ",
"                  oo@@oo@@%%%%%%%%&&&&%%%%@@oo                  ",
"                  oo@@oo@@%%%%%%%%&&&&%%%%@@oo                  ",
"                    oo++@@%%%%%%&&&&&&&&%%%%@@oo                ",
"                    oo++@@%%%%%%&&&&&&&&%%%%@@oo                ",
"                  oo++@@@@%%%%%%%%&&&&&&&&%%%%@@oo              ",
"                  oo++@@@@%%%%%%%%&&&&&&&&%%%%@@oo              ",
"                  oo++@@@@%%%%%%%%%%&&&&&&%%%%@@oo              ",
"                  oo++@@@@%%%%%%%%%%&&&&&&%%%%@@oo              ",
"                oo++++@@@@%%%%%%%%%%%%&&%%%%%%@@@@oo            ",
"                oo++++@@@@%%%%%%%%%%%%&&%%%%%%@@@@oo            ",
"                oo++++@@@@@@%%%%%%%%%%%%%%%%%%@@@@oo            ",
"                oo++++@@@@@@%%%%%%%%%%%%%%%%%%@@@@oo            ",
"                oo##++++@@@@@@%%%%%%%%%%%%%%@@@@@@oo            ",
"                oo##++++@@@@@@%%%%%%%%%%%%%%@@@@@@oo            ",
"                  oo++++@@@@@@@@@@%%%%%%@@@@@@@@++oo            ",
"                  oo++++@@@@@@@@@@%%%%%%@@@@@@@@++oo            ",
"                  oo++++@@@@@@@@@@@@@@@@@@@@@@@@oo              ",
"                  oo++++@@@@@@@@@@@@@@@@@@@@@@@@oo              ",
"                  oo##++++@@@@@@@@@@@@@@@@@@@@++oo              ",
"                  oo##++++@@@@@@@@@@@@@@@@@@@@++oo              ",
"                    oo++++++@@@@@@@@@@@@@@@@++oo                ",
"                    oo++++++@@@@@@@@@@@@@@@@++oo                ",
"                    oo##++++++++@@@@@@@@@@++##oo                ",
"                    oo##++++++++@@@@@@@@@@++##oo                ",
"                      oo##++++++++++++++++++oo                  ",
"                      oo##++++++++++++++++++oo                  ",
"                        oo####++++++++++##oo                    ",
"                        oo####++++++++++##oo                    ",
"                          oo$$##########oo                      ",
"                          oo$$##########oo                      ",
"                            oooooooooooo                        ",
"                            oooooooooooo                        ",
"                                                                ",
"                                                                ",
"                                                                ",
"                                                                ",
"                                                                ",
"                                                                ",
"                                                                ",
"                                                                ",
"                                                                ",
"                                                                ",
"                                                                ",
"                                                                ",
"                                                                ",
"                                                                ",
"                                                                ",
"                                                                "
};